<?xml version="1.0" encoding="UTF-8"?>
<svg width="509px" height="475px" viewBox="0 0 509 475" version="1.1" xmlns="http://www.w3.org/2000/svg" xmlns:xlink="http://www.w3.org/1999/xlink">
    <!-- Generator: Sketch 58 (84663) - https://sketch.com -->
    <title>032_1-Tmax-B</title>
    <desc>Created with Sketch.</desc>
    <defs>
        <filter x="-41.4%" y="-41.4%" width="182.7%" height="182.7%" filterUnits="objectBoundingBox" id="filter-1">
            <feOffset dx="0" dy="7" in="SourceAlpha" result="shadowOffsetOuter1"></feOffset>
            <feGaussianBlur stdDeviation="5" in="shadowOffsetOuter1" result="shadowBlurOuter1"></feGaussianBlur>
            <feColorMatrix values="0 0 0 0 0   0 0 0 0 0.0901960784   0 0 0 0 0.137254902  0 0 0 0.15 0" type="matrix" in="shadowBlurOuter1" result="shadowMatrixOuter1"></feColorMatrix>
            <feMerge>
                <feMergeNode in="shadowMatrixOuter1"></feMergeNode>
                <feMergeNode in="SourceGraphic"></feMergeNode>
            </feMerge>
        </filter>
        <circle id="path-2" cx="40.0348406" cy="40.0348406" r="40.0348406"></circle>
        <filter x="-41.4%" y="-41.4%" width="182.7%" height="182.7%" filterUnits="objectBoundingBox" id="filter-4">
            <feOffset dx="0" dy="7" in="SourceAlpha" result="shadowOffsetOuter1"></feOffset>
            <feGaussianBlur stdDeviation="5" in="shadowOffsetOuter1" result="shadowBlurOuter1"></feGaussianBlur>
            <feColorMatrix values="0 0 0 0 0   0 0 0 0 0.0901960784   0 0 0 0 0.137254902  0 0 0 0.15 0" type="matrix" in="shadowBlurOuter1" result="shadowMatrixOuter1"></feColorMatrix>
            <feMerge>
                <feMergeNode in="shadowMatrixOuter1"></feMergeNode>
                <feMergeNode in="SourceGraphic"></feMergeNode>
            </feMerge>
        </filter>
        <circle id="path-5" cx="40.0348406" cy="40.0348406" r="40.0348406"></circle>
        <filter x="-41.4%" y="-41.4%" width="182.7%" height="182.7%" filterUnits="objectBoundingBox" id="filter-7">
            <feOffset dx="0" dy="7" in="SourceAlpha" result="shadowOffsetOuter1"></feOffset>
            <feGaussianBlur stdDeviation="5" in="shadowOffsetOuter1" result="shadowBlurOuter1"></feGaussianBlur>
            <feColorMatrix values="0 0 0 0 0   0 0 0 0 0.0901960784   0 0 0 0 0.137254902  0 0 0 0.15 0" type="matrix" in="shadowBlurOuter1" result="shadowMatrixOuter1"></feColorMatrix>
            <feMerge>
                <feMergeNode in="shadowMatrixOuter1"></feMergeNode>
                <feMergeNode in="SourceGraphic"></feMergeNode>
            </feMerge>
        </filter>
        <circle id="path-8" cx="40.0348406" cy="40.0348406" r="40.0348406"></circle>
        <polygon id="path-10" points="0 0.0519781744 66.3612488 0.0519781744 66.3612488 56.12222 0 56.12222"></polygon>
        <polygon id="path-12" points="0.165836869 0.125972 115.997913 0.125972 115.997913 78.232 0.165836869 78.232"></polygon>
    </defs>
    <g id="X_032_Solutions_Bots" stroke="none" stroke-width="1" fill="none" fill-rule="evenodd">
        <g id="032_Solutions_Bots_MINIMAL" transform="translate(-760.000000, -198.000000)">
            <g id="Hero">
                <g id="032_1-Tmax-B" transform="translate(770.000000, 201.000000)">
                    <g id="Group-24-Copy-2" transform="translate(148.500000, 261.000000) rotate(-360.000000) translate(-148.500000, -261.000000) translate(50.000000, 257.000000)">
                        <path d="M0.5,4.5 L193.375,4.25" id="Line" stroke="#03363D" stroke-width="1.25" stroke-linecap="square" stroke-dasharray="15,18.75"></path>
                        <polygon id="Triangle" fill="#03363D" transform="translate(59.000000, 4.250000) rotate(-90.000000) translate(-59.000000, -4.250000) " points="59 1.125 62.75 7.375 55.25 7.375"></polygon>
                        <polygon id="Triangle-Copy-11" fill="#03363D" transform="translate(25.750000, 4.250000) rotate(-90.000000) translate(-25.750000, -4.250000) " points="25.75 1.125 29.5 7.375 22 7.375"></polygon>
                        <polygon id="Triangle-Copy" fill="#03363D" transform="translate(92.750000, 4.250000) rotate(-90.000000) translate(-92.750000, -4.250000) " points="92.75 1.125 96.5 7.375 89 7.375"></polygon>
                        <polygon id="Triangle-Copy-2" fill="#03363D" transform="translate(126.500000, 4.250000) rotate(-90.000000) translate(-126.500000, -4.250000) " points="126.5 1.125 130.25 7.375 122.75 7.375"></polygon>
                        <polygon id="Triangle-Copy-3" fill="#03363D" transform="translate(160.250000, 4.250000) rotate(-90.000000) translate(-160.250000, -4.250000) " points="160.25 1.125 164 7.375 156.5 7.375"></polygon>
                        <polygon id="Triangle-Copy-5" fill="#03363D" transform="translate(193.250000, 4.250000) rotate(-90.000000) translate(-193.250000, -4.250000) " points="193.25 1.125 197 7.375 189.5 7.375"></polygon>
                    </g>
                    <g id="Group-24-Copy" transform="translate(449.500000, 254.500000) rotate(-270.000000) translate(-449.500000, -254.500000) translate(373.000000, 250.000000)">
                        <path d="M0.5,4.5 L153,4.5" id="Line" stroke="#03363D" stroke-width="1.25" stroke-linecap="square" stroke-dasharray="15,18.75"></path>
                        <polygon id="Triangle" fill="#03363D" transform="translate(23.000000, 4.375000) rotate(-90.000000) translate(-23.000000, -4.375000) " points="23 1.25 26.75 7.5 19.25 7.5"></polygon>
                        <polygon id="Triangle-Copy" fill="#03363D" transform="translate(56.750000, 4.375000) rotate(-90.000000) translate(-56.750000, -4.375000) " points="56.75 1.25 60.5 7.5 53 7.5"></polygon>
                        <polygon id="Triangle-Copy-2" fill="#03363D" transform="translate(90.500000, 4.375000) rotate(-90.000000) translate(-90.500000, -4.375000) " points="90.5 1.25 94.25 7.5 86.75 7.5"></polygon>
                        <polygon id="Triangle-Copy-3" fill="#03363D" transform="translate(124.250000, 4.375000) rotate(-90.000000) translate(-124.250000, -4.375000) " points="124.25 1.25 128 7.5 120.5 7.5"></polygon>
                    </g>
                    <g id="Group-24-Copy-3" transform="translate(348.500000, 126.500000) rotate(-270.000000) translate(-348.500000, -126.500000) translate(272.000000, 122.000000)">
                        <path d="M0.5,4.5 L153,4.5" id="Line" stroke="#03363D" stroke-width="1.25" stroke-linecap="square" stroke-dasharray="15,18.75"></path>
                        <polygon id="Triangle" fill="#03363D" transform="translate(23.000000, 4.375000) rotate(-90.000000) translate(-23.000000, -4.375000) " points="23 1.25 26.75 7.5 19.25 7.5"></polygon>
                        <polygon id="Triangle-Copy" fill="#03363D" transform="translate(56.750000, 4.375000) rotate(-90.000000) translate(-56.750000, -4.375000) " points="56.75 1.25 60.5 7.5 53 7.5"></polygon>
                        <polygon id="Triangle-Copy-2" fill="#03363D" transform="translate(90.500000, 4.375000) rotate(-90.000000) translate(-90.500000, -4.375000) " points="90.5 1.25 94.25 7.5 86.75 7.5"></polygon>
                        <polygon id="Triangle-Copy-3" fill="#03363D" transform="translate(124.250000, 4.375000) rotate(-90.000000) translate(-124.250000, -4.375000) " points="124.25 1.25 128 7.5 120.5 7.5"></polygon>
                    </g>
                    <g id="Group-24-Copy-3" transform="translate(348.500000, 258.500000) rotate(-270.000000) translate(-348.500000, -258.500000) translate(294.000000, 254.000000)">
                        <path d="M12.5,4.5 L96.5,4.5" id="Line" stroke="#03363D" stroke-width="1.25" stroke-linecap="square" stroke-dasharray="15,18.75"></path>
                        <polygon id="Triangle" fill="#03363D" transform="translate(4.000000, 4.375000) rotate(-90.000000) translate(-4.000000, -4.375000) " points="4 1.25 7.75 7.5 0.25 7.5"></polygon>
                        <polygon id="Triangle-Copy" fill="#03363D" transform="translate(37.750000, 4.375000) rotate(-90.000000) translate(-37.750000, -4.375000) " points="37.75 1.25 41.5 7.5 34 7.5"></polygon>
                        <polygon id="Triangle-Copy-2" fill="#03363D" transform="translate(71.500000, 4.375000) rotate(-90.000000) translate(-71.500000, -4.375000) " points="71.5 1.25 75.25 7.5 67.75 7.5"></polygon>
                        <polygon id="Triangle-Copy-3" fill="#03363D" transform="translate(105.250000, 4.375000) rotate(-90.000000) translate(-105.250000, -4.375000) " points="105.25 1.25 109 7.5 101.5 7.5"></polygon>
                    </g>
                    <g id="Group-24-Copy-2" transform="translate(399.500000, 337.500000) rotate(-180.000000) translate(-399.500000, -337.500000) translate(346.000000, 333.000000)">
                        <path d="M11.5,4.5 L103.375,4.25" id="Line" stroke="#03363D" stroke-width="1.25" stroke-linecap="square" stroke-dasharray="15,18.75"></path>
                        <polygon id="Triangle-Copy" fill="#03363D" transform="translate(3.750000, 5.250000) rotate(-180.000000) translate(-3.750000, -5.250000) " points="3.75 2.125 7.5 8.375 0 8.375"></polygon>
                        <polygon id="Triangle-Copy-2" fill="#03363D" transform="translate(36.500000, 4.250000) rotate(-90.000000) translate(-36.500000, -4.250000) " points="36.5 1.125 40.25 7.375 32.75 7.375"></polygon>
                        <polygon id="Triangle-Copy-3" fill="#03363D" transform="translate(70.250000, 4.250000) rotate(-90.000000) translate(-70.250000, -4.250000) " points="70.25 1.125 74 7.375 66.5 7.375"></polygon>
                        <polygon id="Triangle-Copy-5" fill="#03363D" transform="translate(103.250000, 4.250000) rotate(-90.000000) translate(-103.250000, -4.250000) " points="103.25 1.125 107 7.375 99.5 7.375"></polygon>
                    </g>
                    <g id="Avatar-02-Tone-01-Hair-01-Copy-5" filter="url(#filter-1)" transform="translate(409.000000, 140.000000)">
                        <mask id="mask-3" fill="white">
                            <use xlink:href="#path-2"></use>
                        </mask>
                        <use id="Mask" fill="#FFFFFF" xlink:href="#path-2"></use>
                        <path d="M40.0144222,19.173375 C27.5823371,19.173375 17.506125,28.5038079 17.506125,40.0135934 C17.506125,46.5727611 20.7790152,52.4218026 25.8935393,56.242636 L25.8935393,64.189125 L33.5581482,59.9832529 C35.6024379,60.5481452 37.7700099,60.8546563 40.0144222,60.8546563 C52.4456629,60.8546563 62.521875,51.5242234 62.521875,40.0135934 C62.521875,28.5038079 52.4456629,19.173375 40.0144222,19.173375 L40.0144222,19.173375 Z M42.6983934,46.9330875 L36.9586381,40.6116154 L25.7590125,46.9330875 L38.0790235,33.4283625 L43.959144,39.7489615 L55.01925,33.4283625 L42.6983934,46.9330875 Z" id="Fill-537" fill="#358EFA" mask="url(#mask-3)"></path>
                    </g>
                    <g id="Avatar-02-Tone-01-Hair-01-Copy-5" filter="url(#filter-4)" transform="translate(0.000000, 221.000000)">
                        <mask id="mask-6" fill="white">
                            <use xlink:href="#path-5"></use>
                        </mask>
                        <use id="Mask" fill="#FFFFFF" xlink:href="#path-5"></use>
                        <g id="Group-3" mask="url(#mask-6)" fill="#25D366">
                            <g transform="translate(17.506125, 19.173375)">
                                <path d="M41.6645352,23.4268136 C40.2849848,32.9582496 31.34359,39.6438236 21.735657,38.3297994 L21.728319,38.3286092 C18.5998704,37.8989328 15.6512036,36.6456109 13.2039691,34.7055209 L12.6205954,34.243708 L5.7742094,35.0566414 L8.45748394,28.9185776 L8.13705645,28.209195 C6.78808114,25.2169334 6.32700798,21.9092585 6.8003112,18.643242 C8.17986165,9.11299621 17.1212565,2.42861251 26.7365274,3.74382689 C31.3925102,4.38298538 35.5103704,6.7813175 38.3293986,10.499625 C41.1496498,14.2167422 42.3335193,18.807495 41.6645352,23.4268136 M41.193678,8.35838452 C37.8010601,3.88665561 32.847887,0.999135153 27.2367367,0.230240589 C15.6756637,-1.35158739 4.9193284,6.69085931 3.25848664,18.1576244 C2.72770215,21.8235613 3.17654525,25.5347273 4.55731871,28.9388116 L0.0248595163,39.3093663 L11.5614725,37.9382107 C14.3853927,40.0151782 17.7095222,41.3589583 21.2195486,41.8410052 L21.2281097,41.8421955 C32.7879597,43.4228332 43.545518,35.3791963 45.2063598,23.9124312 C46.0110975,18.3552041 44.5850729,12.8313037 41.193678,8.35838452" id="Fill-542"></path>
                                <path d="M33.4067981,26.9059163 C32.9199253,26.5735245 30.5247069,24.9558048 30.0684166,24.7154784 C29.6133495,24.4751519 29.2769425,24.340043 28.8512346,24.8147176 C28.42675,25.2893922 27.2536068,26.3272198 26.897627,26.6333072 C26.5416471,26.9405902 26.229706,26.9417859 25.7428332,26.6081985 C25.2559604,26.2758067 23.6460997,25.4914577 21.9004528,23.43852 C20.5413682,21.8399308 19.7339912,19.9854716 19.5040111,19.4211229 C19.274031,18.8567743 19.5871954,18.6116653 19.8869035,18.3868823 C20.1560292,18.1860125 20.4985527,17.8500337 20.8043774,17.5810116 C21.110202,17.3119895 21.2288619,17.106337 21.4539488,16.7823148 C21.6790358,16.457097 21.634997,16.1414443 21.5420263,15.8616613 C21.4490556,15.5818783 20.770125,12.8689396 20.4826499,11.7629598 C20.2037378,10.6868713 19.7523407,10.7645888 19.4330598,10.7048061 C19.1296818,10.6474147 18.7798184,10.5960016 18.429955,10.5481754 C18.081315,10.5003493 17.4941317,10.5529581 16.9387542,11.0096978 C16.3833767,11.4664376 14.8481372,12.5437218 14.4774777,15.113182 C14.1092649,17.6826422 15.6298249,20.4230809 15.8426788,20.8068858 C16.0530861,21.1918863 18.7296632,26.9358076 23.6632258,29.9201597 C24.8363691,30.6303781 25.7672992,31.0847266 26.4939385,31.4302706 C27.692771,32.0005975 28.8426715,32.1010324 29.7650386,32.0902715 C30.7938326,32.0795106 33.0495949,31.2533138 33.6612441,30.0947252 C34.2728934,28.9349409 34.4233591,27.8899394 34.3242719,27.6532 C34.2239614,27.4176561 33.8936708,27.2395037 33.4067981,26.9059163" id="Fill-544"></path>
                            </g>
                        </g>
                    </g>
                    <g id="Avatar-02-Tone-01-Hair-01-Copy-5" filter="url(#filter-7)" transform="translate(312.000000, 0.000000)">
                        <mask id="mask-9" fill="white">
                            <use xlink:href="#path-8"></use>
                        </mask>
                        <use id="Mask" fill="#FFFFFF" xlink:href="#path-8"></use>
                        <path d="M40.1407274,19 L40.4883362,19.0028332 C41.0685326,19.0123254 41.6529018,19.0457244 42.2404049,19.1038732 C53.5945804,20.2282567 61.8358933,30.4345924 60.5488096,41.9663377 C59.3721248,52.5225222 50.3973553,60.4933895 40.0304604,60.6779823 L39.6881988,60.6812401 C39.0027009,60.6820866 38.3114571,60.6488353 37.6163035,60.5799955 C26.0994348,59.4385759 17.8599296,49.2322402 19.1289364,37.8623379 C20.335522,27.0382171 29.4965893,19.0006795 40.1407274,19 Z M57.8462953,45.9067908 C57.6854098,45.8914583 57.6673328,46.0515978 57.3311002,46.1793686 C57.1521378,46.3241756 56.9767907,46.4689826 56.6369427,46.5967534 C56.1398247,46.7091918 55.9626699,46.8539987 55.6246297,46.9817696 C55.1076269,47.256051 55.2865894,47.111244 54.5743549,47.6870647 C54.0248135,48.2816251 54.0248135,48.2816251 53.827774,48.5848679 C53.6325422,48.8898143 53.4391181,49.1947607 53.2420786,49.4980036 C53.0631161,49.6428105 52.7268835,49.772285 52.3870356,49.9000559 C52.2555253,50.0086611 52.0314832,50.1076835 51.7934597,50.1367514 L51.6736465,50.1451762 L51.6736465,50.1451762 L51.553685,50.1402651 L51.553685,50.1402651 C51.3927996,50.1249326 50.6823727,50.7024568 50.3624095,50.6700882 C50.0243692,50.7995627 49.9538689,51.4401205 49.9538689,51.4401205 L50.16537,52.433326 L50.3587941,53.5849672 L49.9520612,54.353296 C49.9520612,54.353296 50.3768711,54.8814155 50.5377566,54.896748 C50.7510654,54.9183271 50.8848353,55.0035076 51.0033402,55.0149912 L51.0616182,55.013956 C51.1000188,55.008324 51.1379136,54.9919609 51.177683,54.9597816 C54.0665297,52.7565534 56.4472945,49.7531824 57.7012668,46.3207219 L57.8462953,45.9067908 L57.8462953,45.9067908 Z M39.3498896,43.5898794 C39.4482802,43.6340516 39.5420225,43.6555379 39.6291064,43.6573055 L39.7138965,43.65261 C39.9886355,43.6157812 40.181949,43.3708436 40.2193942,43.0276876 C40.2718176,42.5472692 40.8593207,43.0907212 41.4811701,43.3155979 C41.9240571,43.6818744 42.4049058,43.7312791 43.0086782,44.112888 C43.0798739,44.1448635 43.1489302,44.161315 43.2148204,44.1662622 L43.3111527,44.1655573 C43.6234894,44.1377971 43.8438365,43.8726788 43.8438365,43.8726788 L44.8742266,43.3275232 C45.2140745,43.1997523 45.5864611,42.7499989 45.9425784,42.4620886 C46.2968879,42.1724747 47.0615458,41.114532 47.2748547,40.6511497 L47.4013938,39.5301735 C47.4538172,39.0497551 47.4899712,38.7294761 47.3652398,38.3921611 C47.4194708,37.9134463 47.1356616,37.5607987 47.0290072,37.0650478 C46.9042758,36.7277328 46.1396179,36.3290877 45.8377317,36.1365796 C45.6967309,35.9611077 45.2701133,35.4329881 45.3062673,35.1127092 C45.3243443,34.9525697 45.0224581,34.7617653 44.8977267,34.4244502 C44.7911928,34.133587 44.4687711,33.5778462 43.9575267,33.4980319 L43.8362077,33.4883988 C43.794659,33.4882287 43.7520052,33.4912119 43.7082589,33.4976856 L42.9074469,33.4176159 C42.7646385,33.2421439 42.142789,33.0189708 42.0017883,32.8417952 C41.7231241,32.665668 41.02088,32.5838947 40.9144914,32.5723563 L40.9008978,32.570921 L40.9008978,32.570921 C40.9008978,32.570921 40.6001721,32.6389393 40.3908184,32.6619556 L40.3078327,32.668735 L40.3078327,32.668735 L40.2428943,32.6680269 L40.2428943,32.6680269 C39.9229311,32.6356583 39.3010817,32.4124852 39.3010817,32.4124852 C39.3010817,32.4124852 38.856387,33.5027965 38.83831,33.6629359 C38.8236676,33.8070614 38.6626014,34.0671007 38.2681355,34.1996348 L38.1278831,34.2387566 L38.1278831,34.2387566 L38.06662,34.2366419 L38.06662,34.2366419 L37.9851872,34.2391679 C37.8034677,34.2480468 37.5125714,34.2774466 37.1835433,34.2834285 L37.0161805,34.2842645 C36.4499052,34.2791902 35.8105996,34.1887242 35.4271765,33.8094465 C35.3882288,33.7615905 35.3214484,33.7470605 35.2449137,33.7512383 L35.1657972,33.7611105 C34.9767301,33.7961696 34.7673653,33.9065523 34.7673653,33.9065523 C34.7673653,33.9065523 32.9542404,34.2132024 32.6180078,34.3409732 C32.2799676,34.4704477 31.7828495,34.5828861 31.5876177,34.8878325 C31.4086552,35.0309358 30.8573062,35.6237926 30.8410369,35.7839321 C30.6439974,36.0888785 30.2372644,36.8572072 30.2191874,37.0173467 C30.0221479,37.3222931 29.772685,38.107658 29.4165678,38.3955683 C29.2328202,38.6825767 27.9297736,40.006324 27.4530849,40.6681172 L27.3738646,40.7840314 L27.3738646,40.7840314 L26.110281,40.4978247 C26.110281,40.4978247 26.1988584,41.1537151 26.3416669,41.3291871 C26.3055128,41.649466 26.7321305,42.1775855 26.8550542,42.513197 C27.1406711,42.8658445 27.4244803,43.2167885 27.6902125,43.7295755 C28.1330994,44.0975555 28.0987531,44.4178345 28.2234845,44.7534459 C28.5091014,45.1060935 28.5958711,45.7619838 28.5958711,45.7619838 C28.5958711,45.7619838 28.4349857,47.2032391 28.2578309,47.348046 C28.2216768,47.668325 28.6121404,48.5167234 28.6121404,48.5167234 L29.1815665,49.2203149 L30.0149171,50.4366934 L29.7293002,51.5423372 C29.7293002,51.5423372 30.3168033,52.0857892 30.6006125,52.4367332 C31.0434995,52.8047132 30.8663447,52.9495202 31.1501539,53.3004641 C31.4357708,53.6531117 32.5005072,54.2442648 32.8204704,54.2766334 C32.9614712,54.4521054 34.5432103,54.7706807 34.5432103,54.7706807 L34.6155184,54.1301229 L34.8649812,53.344758 C34.8649812,53.344758 35.1144441,52.5610968 35.3096759,52.2561504 C35.6477162,52.1266759 35.5410617,51.630925 35.8953713,51.3430147 C36.2695656,50.8949649 36.4485281,50.7501579 36.6437599,50.4452115 C36.6618369,50.285072 36.5714518,49.6291816 36.5714518,49.6291816 C36.5714518,49.6291816 36.3418737,48.7961157 36.3780277,48.4758367 C36.255104,48.1402253 36.4485281,47.8352789 36.4864898,47.5149999 C36.6817216,47.2117571 36.9131075,46.5865317 36.9474538,46.2662528 C36.9655308,46.1061133 37.4807259,45.8335355 37.8187661,45.7040611 C38.0139979,45.4008182 38.050152,45.0805393 38.068229,44.9186962 C38.104383,44.5984173 38.3357689,43.9748955 38.2273067,43.4791446 C38.2833455,42.9970226 38.8871179,43.3820388 39.3498896,43.5898794 Z M25.7704331,46.4536501 L25.698125,47.0942079 C25.680048,47.2543474 25.6276246,47.7347658 25.7505484,48.0720809 C25.716202,48.3906562 25.8210487,48.8881107 25.9475879,49.2237221 C25.9096261,49.5440011 26.1753583,50.0567881 26.4772445,50.2475926 C26.6218607,50.4230645 26.8875928,50.9358516 27.2075561,50.9682202 C27.2263562,50.9916164 27.2467631,51.0007781 27.2677185,50.9982895 L27.2994307,50.9861422 C27.4268665,50.9051866 27.5549964,50.4513445 27.4552112,50.1828553 C27.4732882,50.0227159 27.2419024,49.1896499 27.2419024,49.1896499 C27.2419024,49.1896499 27.1370557,48.693899 27.171402,48.3736201 C27.0484783,48.0380086 26.2838204,47.63766 26.2838204,47.63766 L25.7704331,46.4536501 Z M56.2030943,30.2011976 C56.1669402,30.5214766 56.6459812,30.5691777 56.0765551,31.3221739 C55.5089367,32.0751701 55.9337467,32.6032897 55.9337467,32.6032897 C55.9337467,32.6032897 56.9659445,33.5147217 57.2678307,33.7055262 C57.3853313,33.8531725 57.7865407,34.4775934 57.6502517,34.5623402 L57.6155839,34.5717927 C57.5873699,34.5728957 57.548627,34.5631999 57.4974088,34.5402958 C57.3546004,34.363972 57.1684071,34.22385 57.0687575,34.2138412 L57.0415889,34.2148359 C56.9686515,34.2300937 56.9763387,34.3583501 57.1593686,34.6680666 C57.4269084,35.1808536 57.9583728,36.2047241 58.0831042,36.5403355 C58.2060279,36.875947 58.7393,37.8998174 58.7049537,38.2200963 C58.6489149,38.7022183 58.8622237,39.6937202 58.6669919,39.996963 C58.6489149,40.1571024 58.7194153,40.9748359 58.8441467,41.3104473 C59.1315713,37.2916281 58.2620667,33.4823531 56.3639797,30.2182337 L56.2030943,30.2011976 Z M32.2980446,32.8520169 C32.3200151,32.8792747 32.3436543,32.891331 32.3692254,32.8911697 L32.409064,32.8821376 C32.5469084,32.8239728 32.7363428,32.4976657 33.0102791,32.2761963 C33.3663964,31.9865823 33.738783,31.5368289 33.774937,31.21655 C33.9701688,30.9133072 33.5092048,30.7054666 33.5092048,30.7054666 L32.9054324,30.322154 C32.9054324,30.322154 32.2320819,30.1150349 31.7508946,30.0486182 L31.6436565,30.0359473 L31.6436565,30.0359473 C31.5011063,30.0680726 31.3340599,30.0844829 31.1681518,30.0915357 L31.0443348,30.0951702 L31.0443348,30.0951702 L30.9233479,30.0958916 C30.6066259,30.0944612 30.3457265,30.0683159 30.3457265,30.0683159 C30.3457265,30.0683159 30.2408798,29.572565 30.4180346,29.4277581 C30.7723442,29.1398477 31.446617,28.8826024 31.7683879,28.914971 C31.8061237,28.9388216 31.8324766,28.9514656 31.8491484,28.9546432 L31.867108,28.9525274 C31.9153131,28.9144786 31.5904423,28.5132382 31.3598473,28.2267121 L32.1588515,28.3050782 C32.1588515,28.3050782 32.7644317,28.6900943 33.0843949,28.7207593 C33.2253956,28.8962313 33.5272819,29.0887394 33.811091,29.4396833 C34.0949002,29.7923309 33.5616282,30.2250482 33.8635144,30.4175563 C34.1654006,30.6100644 34.3262861,30.6253969 34.6281723,30.8162013 L35.4289842,30.8962711 C36.1859356,30.9705127 35.7293131,31.5065131 35.5146881,31.8220153 L35.484,31.868 L36.049026,31.1194442 L36.6383368,30.2063085 C36.6383368,30.2063085 37.3288789,29.7889237 37.5078414,29.6441167 C37.8458816,29.5163459 38.8581947,29.1313297 38.8581947,29.1313297 L38.6268089,29.7565551 L37.7211502,30.6373221 L37.1860705,31.0700394 L38.1296908,31.3255811 L38.2001912,30.6850233 C39.0172725,30.6032499 38.8943487,30.2676385 39.0534265,30.282971 C39.2305813,30.1398676 39.7457763,29.8655862 39.7457763,29.8655862 C39.7457763,29.8655862 40.5285112,30.1057954 40.8484745,30.138164 C40.9912829,30.313636 40.9732059,30.4737754 41.4341699,30.681616 C41.8969416,30.8894566 42.0379423,31.0649286 42.1807508,31.2404006 C42.3036745,31.5777156 42.7140228,32.264271 42.8369465,32.5998824 C43.1388328,32.7923905 43.7787592,32.8554241 43.9396447,32.8724602 C44.1005302,32.8877928 45.253844,32.6782486 45.253844,32.6782486 L45.3803831,31.5572723 C45.3803831,31.5572723 45.308075,30.7412424 45.326152,30.581103 L44.7043026,30.3579299 L43.7624899,30.1023882 L43.4606037,29.9098801 L43.0520631,29.2233247 C43.0520631,29.2233247 43.5690658,28.9490433 43.3015259,28.4379599 C43.1786022,28.1023484 42.536868,28.0393148 42.2349818,27.8468067 C41.9511726,27.4941592 41.6492864,27.3033547 41.6492864,27.3033547 C41.6492864,27.3033547 41.2063994,26.9353746 40.7797818,26.4072551 C40.7797818,26.4072551 40.3350871,26.0392751 40.0332009,25.846767 C40.0332009,25.846767 38.798703,26.7211987 38.5133147,26.8178691 L38.4695388,26.8263435 L38.4695388,26.8263435 C38.1495756,26.7939749 37.4029947,26.2351904 37.4029947,26.2351904 C37.4029947,26.2351904 37.316225,25.5775964 37.4915721,25.434493 C37.5295338,25.1142141 37.9199974,24.5043212 37.9199974,24.5043212 C37.9199974,24.5043212 38.2038066,24.8569688 38.3267304,25.1925802 C38.4514618,25.5298953 38.5761932,25.8638031 38.5761932,25.8638031 C38.5761932,25.8638031 39.5541599,25.7990659 39.7313147,25.6559625 C39.7493917,25.495823 39.9627006,25.0307371 40.1398553,24.8876338 C40.1473874,24.8201992 40.2628795,24.7918056 40.4168951,24.795552 L40.5133717,24.8016014 C40.7133488,24.8211929 40.9488019,24.8850784 41.099745,24.9813324 C41.1541888,25.0057842 41.1970732,25.0134004 41.2303647,25.0078037 L41.2733529,24.9899521 C41.442683,24.8646262 41.1901301,24.1806351 41.1901301,24.1806351 C41.1901301,24.1806351 40.7635125,23.6525155 40.4435493,23.6218505 C40.2826638,23.606518 39.6969684,23.0613624 39.3770051,23.0289938 C39.0751189,22.8381893 38.310461,22.4378406 37.8332277,22.3901395 L37.6385021,22.3882178 L37.6385021,22.3882178 L37.4416072,22.4091109 C37.3758069,22.4181878 37.3099342,22.4285321 37.2442785,22.4376089 L37.0482513,22.458502 C36.9833186,22.4625089 36.9188921,22.4627134 36.855261,22.4565804 L35.8935636,22.3611781 L34.2955552,22.2027423 C34.2955552,22.2027423 32.9614712,22.5553898 33.4242428,22.764934 C33.4242428,22.764934 32.9090478,23.0375118 32.5529305,23.3254222 C32.3757758,23.4702291 31.9491581,22.9421096 31.6472719,22.7496015 C25.9945881,25.5895217 21.6542959,31.1501092 20.8878303,38.0361063 C20.8516763,38.3563852 20.8173299,38.6766642 20.9402536,39.0139792 C20.9764077,38.6937003 21.332525,38.4040864 21.3668713,38.0838074 C21.3849483,37.9236679 21.9905284,36.8503928 21.9905284,36.8503928 C21.9905284,36.8503928 22.5238005,36.4176755 22.860033,36.288201 C23.0389955,36.1450977 23.3933051,35.8571874 23.9103078,35.5829059 C24.368259,35.3406145 24.5591166,35.200624 24.9335911,35.2060082 L25.0835064,35.2149259 L25.0835064,35.2149259 C25.5625474,35.2609234 25.9367416,34.8128736 26.4519367,34.5402958 C27.1280172,34.2830505 27.1099402,34.4431899 27.1099402,34.4431899 C27.1099402,34.4431899 26.3814363,35.1808536 26.3434746,35.5011326 C26.3314232,35.6078922 26.0277293,35.75781 25.6423541,35.7792629 L25.524501,35.7816732 C25.3646562,35.7792907 25.1951018,35.7536078 25.0292753,35.6936407 L25.0055117,35.7371349 C24.9131766,35.9038107 24.5683113,36.5048031 24.2646174,36.7515833 C24.0856549,36.8963903 24.3875411,37.0888984 24.8322358,37.4568784 C25.1178527,37.8078224 25.134122,37.6476829 25.2588534,37.984998 C25.4016619,38.1604699 26.1663198,38.559115 26.3073205,38.7362906 C26.5337352,38.8793939 27.0102906,39.2294861 27.4593915,39.2137543 L27.5709342,39.2018685 C27.6815835,39.1816984 27.7890712,39.135681 27.8890597,39.0548659 C28.0662145,38.9100589 27.9613678,38.414308 28.1547919,38.1093616 C28.3337543,37.9645546 30.1830334,35.8810379 30.9476913,34.8247989 C31.1248461,34.6799919 31.4990403,34.2302385 31.6761951,34.0871352 C31.8533499,33.9423282 31.2152311,33.877591 31.2152311,33.877591 L31.3038085,33.0785972 C31.4990403,32.7736508 31.3923859,32.2778999 31.3923859,32.2778999 L32.2980446,32.8520169 Z M45.5774226,26.8825627 L44.9013421,27.1381044 L45.4526912,28.003539 L45.8268855,27.5554892 L45.5774226,26.8825627 Z M44.4403781,25.4736761 L43.8727597,26.2266723 L42.8062156,27.0938105 L43.409988,27.4771231 L44.8127647,27.9405053 L44.9013421,27.1381044 L45.0441505,25.8586923 L44.4403781,25.4736761 Z M54.2489685,27.4174967 L54.2670455,27.2573572 C52.6871141,25.4821941 50.7492577,23.9949414 48.6197849,22.8109315 C48.7427086,23.1482466 49.0265178,23.4991905 49.0265178,23.4991905 C49.0265178,23.4991905 49.5073665,23.5468916 50.3587941,24.6031307 C51.2120294,25.6593697 50.9083355,25.4668616 51.2120294,25.6593697 C51.3349531,25.9949812 51.3186838,26.1551206 51.7615707,26.5231007 C52.2062654,26.8910807 52.3111121,27.3868316 52.3111121,27.3868316 L53.093847,27.6270409 L53.7500428,27.529935 C53.7500428,27.529935 54.3737,27.7531081 54.2489685,27.4174967 Z" id="Combined-Shape" fill="#767E8C" mask="url(#mask-9)"></path>
                    </g>
                    <g id="Group-117" transform="translate(136.000000, 65.000000)">
                        <g id="Group-3" transform="translate(0.000000, 45.518088)">
                            <mask id="mask-11" fill="white">
                                <use xlink:href="#path-10"></use>
                            </mask>
                            <g id="Clip-2"></g>
                            <path d="M19.7300488,17.56986 C15.7260488,17.940076 12.5622728,19.555844 10.5658168,23.105236 C10.1912888,23.77298 9.8629608,24.471524 9.5580408,25.174996 C8.7726408,26.989116 9.0369048,28.733012 9.8611128,30.482452 C11.3198008,33.577852 13.5891448,35.987028 16.2779848,37.99334 C17.2180008,38.696196 18.4654008,38.987564 19.7300488,39.533956 L19.7300488,17.56986 Z M65.9300488,0.06622 L65.9300488,56.12222 L19.7300488,56.12222 L19.7300488,50.401428 C18.5079048,49.947436 17.2481848,49.53718 15.9933928,49.11522 C11.6271848,47.646676 7.8024408,45.395196 5.0520008,41.576612 C4.6325048,40.994492 4.1483288,40.46042 3.6918728,39.906636 C2.1869848,38.081428 1.3572328,35.919268 0.8656648,33.664708 C0.1665048,30.4535 -0.0842072,27.17638 0.0242088,23.885092 C0.1196888,20.968332 0.7578648,18.171076 2.4494008,15.756972 C3.9746168,13.578796 6.2378008,12.17062 8.4122808,10.73534 C9.6011608,9.951172 10.9982488,9.5711 12.4637128,9.410324 C14.8938328,9.143596 20.3460488,8.360044 20.3460488,8.360044 L20.3460488,0.259644 C22.5359288,-0.065604 65.2573768,0.020636 66.3612488,0.315084 L65.9300488,0.06622 Z" id="Fill-1" fill="#02363D" mask="url(#mask-11)"></path>
                        </g>
                        <path d="M32.0500488,37.5762464 L27.8741848,37.5762464 C27.9955368,37.1776944 28.0626808,36.9115824 28.1544648,36.6602544 C28.9571128,34.4586704 28.7458248,33.2057264 27.2803608,31.5339024 C26.6834568,30.8526064 26.0637608,30.1996464 25.4902648,29.4906304 C24.6796088,28.4896304 24.4085688,27.2693344 24.6192408,25.8827184 C24.7030168,25.3320144 24.7726248,24.7782304 24.8483928,24.2256784 C25.1206648,22.2242944 25.8857368,20.5980544 27.2470968,19.4005504 C28.4821768,18.3126944 29.6476488,17.1484544 30.5999848,15.6472624 C31.8024168,13.7493664 32.2619528,11.8453104 31.2825128,9.5975264 C30.6628168,8.1757984 30.0917848,6.7158784 29.5805048,5.2307024 C28.9762088,3.4701744 29.0488968,1.7256624 29.9445608,0.0002464 L34.1105688,0.0002464 C33.8376808,0.7265104 33.5647928,1.3696144 33.3498088,2.0410544 C32.6253928,4.3017744 33.4988808,6.2027504 34.3926968,8.0119424 C35.0093128,9.2611904 35.4639208,10.5233744 35.7238728,11.9494144 C36.1014808,14.0351904 35.5938968,15.7193344 34.5214408,17.3104624 C33.4175688,18.9471744 32.0685288,20.1964224 30.7287288,21.5103504 C29.6501128,22.5674064 28.7667688,23.9256864 28.6324808,25.8617744 C28.5228328,27.4356544 28.7710808,28.6725824 29.7597608,29.6723504 C30.3492728,30.2686384 31.0281048,30.7706784 31.5178248,31.4704544 C32.7793928,33.2734864 33.2426248,35.2625504 32.0223288,37.5762464" id="Fill-4" fill="#02363D"></path>
                        <path d="M54.285,37.9762768 C54.68232,35.6798288 56.492128,34.4872528 56.17612,32.2788928 C55.098736,31.3973968 54.058928,30.6064528 53.07764,29.7194128 C52.592848,29.2808208 52.170888,28.7036288 51.80252,28.1135008 C51.227176,27.1962768 51.052232,26.1275168 51.647288,25.1560848 C52.592848,23.6080768 53.560584,22.0631488 54.646592,20.6635968 C55.813912,19.1556288 56.992936,17.6858528 57.7346,15.7879568 C57.931104,15.2840688 58.129456,14.7641648 58.234176,14.2245488 C58.355528,13.5999248 58.252656,13.0652368 57.798048,12.5595008 C56.968296,11.6373488 56.207536,10.6154048 55.465872,9.5823728 C54.078024,7.6512128 53.858112,4.9401968 54.859112,2.6616128 C54.9318,2.4959088 55.026048,2.3437568 55.0858,2.1725088 C55.614328,0.6312768 56.428064,-0.2329712 57.917552,0.0633248 C58.713424,0.2222528 59.54872,0.0916608 60.54048,0.0916608 C60.301472,0.5801488 60.169648,0.9589888 59.959592,1.2565168 C59.04052,2.5593568 58.462712,4.0722528 58.092496,5.7126608 C57.818376,6.9169408 57.858416,8.0774848 58.617328,9.0279728 C59.508064,10.1404688 60.393256,11.2628208 61.338816,12.3026288 C62.442688,13.5173808 62.646584,14.8473248 62.05584,16.5099088 C61.304936,18.6221728 60.099424,20.3075488 58.845248,21.9491888 C58.189824,22.8078928 57.419208,23.5341568 56.704032,24.3238688 C56.513688,24.5333088 56.32396,24.7445968 56.150248,24.9749808 C54.785808,26.7909488 55.000792,28.3611328 56.763784,29.4600768 C57.535632,29.9399408 58.317952,30.3939328 59.086104,30.8824208 C60.478264,31.7688448 60.639656,32.1526128 60.202912,33.9353168 C59.944192,34.9960688 59.630648,36.0531248 59.21608,37.0331808 C59.041136,37.4502128 58.561272,37.9011248 58.197216,37.9337728 C56.940576,38.0434208 55.672232,37.9762768 54.285,37.9762768" id="Fill-6" fill="#02363D"></path>
                        <path d="M35.4049696,37.677332 C35.8022896,36.802612 36.1170656,36.117004 36.4232176,35.426468 C36.8384016,34.49138 37.2917776,33.57662 37.6459776,32.607652 C38.1899056,31.113852 37.9816976,30.218188 36.9314176,29.145116 C36.4195216,28.62398 35.8478736,28.181076 35.3821776,27.606964 C33.9271856,25.809476 33.8655856,23.318988 35.2287936,21.438956 C35.7018816,20.78538 36.2427296,20.196484 36.7940496,19.638388 C38.1560256,18.259164 39.2001456,16.570708 40.0508416,14.697452 C40.8873696,12.85438 40.7019536,11.268796 39.5210816,9.70662 C39.4502416,9.614836 39.3824816,9.518124 39.3030176,9.440508 C36.6326576,6.83914 36.8359376,3.055052 38.4116656,0.000308 L42.5819856,0.000308 C42.1717296,0.90706 41.7577776,1.676444 41.4614816,2.50866 C40.6828576,4.69546 40.9994816,6.648796 42.3971856,8.340332 C42.9060016,8.956332 43.3384336,9.669044 43.8626496,10.262868 C45.1168256,11.6809 45.3016256,13.907124 44.0542256,15.894956 C42.6922496,18.06574 41.1078976,20.0277 39.6208736,22.081444 C39.2161616,22.640772 38.7652496,23.16314 38.4209056,23.773596 C37.9478176,24.61074 38.2003776,26.18462 38.9408096,27.037164 C39.3855616,27.54906 39.9190176,27.9433 40.4062736,28.400988 C42.2407216,30.122708 42.5561136,31.78098 41.4608656,34.264076 C39.4896656,38.73254 40.5079136,37.682876 36.4749616,37.812236 C36.1854416,37.822092 35.8916096,37.741396 35.4049696,37.677332" id="Fill-8" fill="#02363D"></path>
                        <path d="M52.079104,0.0970816 C51.47604,1.2409936 51.0202,1.9974416 50.656144,2.8154896 C49.43092,5.5708576 49.780192,7.9868096 51.702112,10.1286416 C52.392032,10.8980256 53.054848,11.6846576 53.224248,12.8587536 C53.301864,13.3977536 53.396112,14.0334656 53.238416,14.5034736 C52.822,15.7490256 52.410512,17.0580256 51.74708,18.1039936 C50.597008,19.9162656 49.257208,21.5486656 47.998104,23.2562176 C47.791744,23.5352656 47.5706,23.8001456 47.37964,24.0945936 C46.482128,25.4830576 46.46488,26.4698896 47.408592,27.7745776 C47.945128,28.5162416 48.575912,29.1599616 49.180824,29.8233936 C50.017352,30.7393856 50.710968,31.6670816 50.090656,33.1978416 C49.550424,34.5333296 49.12292,35.9408896 48.554352,37.2566656 C48.4022,37.6090176 47.934656,37.8270816 47.576144,37.9539776 C47.24412,38.0710176 46.864048,37.9847776 46.50492,37.9847776 C45.63944,37.9866256 44.775192,37.9853936 43.593088,37.9853936 C44.017512,37.0613936 44.331056,36.3942656 44.632896,35.7191296 C45.099824,34.6762416 45.586464,33.6438256 46.010888,32.5750656 C46.382952,31.6387456 46.319504,30.8065296 45.580304,30.0728736 C44.9064,29.4051296 44.305184,28.6184976 43.719984,27.8312496 C42.745472,26.5210176 42.549584,24.8972416 43.333752,23.4126816 C43.962688,22.2182576 44.710512,21.0761936 45.550736,20.0955216 C46.830168,18.6011056 47.812072,16.8615216 48.678168,15.0178336 C49.4648,13.3466256 49.241808,12.1035376 48.23896,10.5992656 C47.53672,9.5477536 46.77596,8.4525056 46.389112,7.2137296 C45.706584,5.0343216 46.208008,2.8820176 47.119688,0.9089696 C47.289704,0.5430656 47.716592,0.1562176 48.041224,0.1334256 C49.302792,0.0434896 50.571752,0.0970816 52.079104,0.0970816" id="Fill-10" fill="#02363D"></path>
                        <path d="M21.831348,127.642161 C21.831348,128.330233 21.824572,128.840897 21.833196,129.352177 C21.899108,132.989657 21.988428,136.627137 22.031548,140.264617 C22.083292,144.674561 22.08822,149.085737 22.130108,153.496297 C22.18986,159.903929 22.281644,166.309713 22.327228,172.717345 C22.385132,180.665593 22.414084,188.613841 22.444884,196.561473 C22.459668,200.049881 22.446116,203.540137 22.449812,207.028545 C22.449812,207.489313 22.467676,207.950697 22.494164,208.411465 C22.603812,210.248993 22.749804,212.085289 22.865612,213.921585 C25.361644,213.997969 27.857676,214.055873 30.356172,214.060801 C30.439332,214.061417 30.500932,214.090985 30.55206,214.131641 C33.560604,214.113777 36.569148,214.098377 39.577692,214.091601 C40.953836,214.087289 42.332444,214.143961 43.708588,214.125481 C45.680404,214.097761 47.651604,213.989961 49.622804,213.985033 C51.86258,213.978873 54.110364,213.949305 56.336588,214.134105 C57.26182,214.209257 58.123604,214.743945 59.141852,214.461817 C60.17242,214.177225 61.208532,214.055257 62.249572,214.023225 C62.260044,212.763505 62.29454,211.504401 62.401108,210.245913 C62.404188,210.213265 62.416508,210.188009 62.425748,210.160289 C62.26066,206.427945 62.09434,202.694985 61.942804,198.963257 C61.830692,196.204193 61.730284,193.443281 61.64466,190.683601 C61.52762,186.900745 61.43214,183.117273 61.323724,179.334417 C61.21962,175.704329 61.127836,172.074857 61.000324,168.446001 C60.81614,163.233409 60.60054,158.023281 60.405268,152.810689 C60.296236,149.899473 60.192132,146.986409 60.105276,144.073961 C59.988852,140.188233 59.897068,136.301889 59.783724,132.416777 C59.74122,130.950697 59.670996,129.484617 59.613092,128.025929 C57.774332,127.794313 56.052612,128.122025 54.313028,127.810945 C54.364772,127.702529 54.423292,127.600273 54.478116,127.493089 L50.515388,127.493089 C50.512308,127.499865 50.507996,127.506025 50.5043,127.512185 L35.324212,127.512185 C35.319284,127.506025 35.314972,127.499865 35.310044,127.493089 L31.11262,127.493089 C31.116316,127.499865 31.119396,127.505409 31.123708,127.512185 L21.578172,127.512185 L21.831348,127.642161 Z" id="Fill-12" fill="#ACCFCB"></path>
                        <path d="M149.038305,115.72946 C147.848193,107.260692 146.018673,106.037932 140.555369,102.385052 C140.757417,101.892252 140.924353,101.356948 141.182457,100.869692 C141.966009,99.38698 142.912185,97.976956 143.566993,96.441268 C145.529569,91.840364 147.395433,87.198188 149.272385,82.560324 C149.776889,81.315388 150.362705,80.228764 151.561441,79.434124 C152.470657,78.83106 153.229569,77.921844 153.879449,77.021868 C155.410209,74.906524 155.138553,72.237396 151.951369,71.552404 C149.725761,71.075004 148.660081,71.228388 147.315353,73.05298 C146.831793,73.706556 146.436937,74.427892 146.024217,75.13198 C145.226497,76.494572 145.252985,77.917532 146.083353,79.195732 C146.502233,79.8413 146.407369,80.290364 146.176985,80.878644 C145.435321,82.783316 144.761417,84.715092 143.981561,86.602516 C142.009129,91.367276 139.999121,96.114788 137.986649,100.8623 C137.823409,101.247916 137.527113,101.578708 137.167369,102.125716 C136.910497,101.634148 136.712145,101.401916 136.665329,101.143196 C136.340697,99.345092 136.062881,97.540212 135.737633,95.742108 C134.824105,90.678588 133.885321,85.61938 132.984729,80.553396 C132.909577,80.127124 132.917585,79.594284 133.111625,79.230228 C133.684505,78.151612 134.355945,77.123508 135.018145,76.093556 C135.535585,75.288444 135.661865,73.751524 135.053257,73.238396 C134.129873,72.461004 133.118401,71.7717 132.080441,71.153236 C131.383129,70.738668 130.429561,70.83538 129.922593,71.314628 C128.444193,72.712948 127.243609,74.350892 126.575249,76.325172 C125.632153,79.11442 126.796393,81.463844 129.613361,82.236308 C130.935913,88.674124 132.268937,95.153828 133.609353,101.671108 C130.053185,102.880932 127.064969,104.666716 124.866465,107.56746 C124.102625,108.575852 123.394841,109.642764 122.785617,110.751564 C122.147441,111.911492 121.683593,113.1669 121.097161,114.357628 C120.938849,114.679796 120.823657,114.928044 120.726329,115.122084 C130.159137,115.574228 139.597489,115.712212 149.038305,115.72946" id="Fill-14" fill="#02363D"></path>
                        <path d="M195.046421,309.438606 C195.160997,313.227006 195.256477,317.016638 195.364277,320.804422 C195.466533,324.387694 195.570637,327.969734 195.683365,331.55239 C195.724021,332.873094 195.790549,334.194414 195.852765,335.720246 L200.149981,335.720246 C200.212197,335.61799 200.315685,335.54099 200.472149,335.54099 L233.418909,335.54099 C233.421373,334.78639 233.437389,334.128502 233.412749,333.475542 C233.366549,332.201038 233.248893,330.92715 233.236573,329.65203 C233.186061,324.172094 233.174357,318.69031 233.125693,313.208526 C233.071485,306.704798 232.966149,300.202302 232.931653,293.699806 C232.872517,282.373414 232.850957,271.050102 232.814613,259.725558 C232.813381,259.367046 232.818309,259.007302 232.802293,258.649406 C232.656917,255.448054 232.453637,252.247318 232.326741,249.04535 L228.468117,249.04535 C228.339989,249.04535 228.245125,248.99607 228.179829,248.922766 C228.169357,248.922766 228.157653,248.923998 228.146565,248.923998 C218.556677,248.97759 208.966173,249.021326 199.376285,249.07923 C197.266485,249.092166 195.156685,249.11003 193.046885,249.12543 L193.046885,252.546078 C193.114029,253.154686 193.180557,253.670278 193.200885,254.184022 C193.313613,257.045958 193.417101,259.91159 193.505189,262.774758 C193.620997,266.562542 193.715861,270.352174 193.826125,274.139958 C193.930229,277.774974 194.028789,281.40999 194.156301,285.043774 C194.339253,290.260062 194.550541,295.475118 194.743965,300.690174 C194.851765,303.606318 194.957101,306.522462 195.046421,309.438606" id="Fill-16" fill="#ACCFCB"></path>
                        <path d="M149.185098,290.136246 L139.329714,290.136246 C139.597058,288.224798 139.832986,286.404518 140.107722,284.589166 C141.004002,278.67803 141.919378,272.769974 142.817506,266.858838 C143.884418,259.835822 144.939626,252.808494 146.002226,245.784862 C146.88249,239.973518 147.770146,234.164022 148.64733,228.35083 C148.83829,227.086182 148.870322,226.98023 149.831898,226.974686 C154.141434,226.957438 158.451586,226.970374 162.761738,226.981462 C162.955162,226.981462 163.149202,227.059078 163.329074,227.09727 C163.404842,229.524926 150.551386,286.79383 149.185098,290.136246 L149.185098,290.136246 Z M137.293218,279.048246 L126.914234,279.048246 L126.914234,265.496246 L139.153538,265.496246 C139.415338,266.738718 138.201818,275.604806 137.293218,279.048246 L137.293218,279.048246 Z M135.723034,290.136246 L126.914234,290.136246 L126.914234,282.39867 C130.263426,282.313046 133.453074,282.373414 136.903906,282.359246 C136.486874,285.10291 136.108034,287.60079 135.723034,290.136246 L135.723034,290.136246 Z M124.450234,235.89375 C119.768018,236.283678 115.159106,236.047134 110.395578,236.114894 C110.58469,233.05399 110.759634,230.22963 110.940122,227.304246 L124.450234,227.304246 L124.450234,235.89375 Z M123.834234,249.017014 C118.994938,249.15931 114.259746,249.077998 109.292322,248.86055 C109.464802,245.78363 109.629274,242.84223 109.800522,239.791182 C114.522162,239.414806 119.158794,239.586054 123.834234,239.544166 L123.834234,249.017014 Z M123.834234,262.03679 C122.63981,262.382366 110.40913,262.442118 108.680634,262.097774 C108.867282,258.948166 109.055162,255.776382 109.25105,252.472158 C114.179666,252.499878 118.964754,252.41487 123.834234,252.566406 L123.834234,262.03679 Z M123.834234,279.048246 L107.99441,279.048246 C107.99441,278.359558 107.961762,277.714606 107.999954,277.07335 C108.189066,273.812246 108.417602,270.55299 108.590082,267.290654 C108.673242,265.695214 108.694802,265.61267 110.226178,265.608974 C114.375554,265.599734 118.526162,265.604662 122.674922,265.610822 C123.031586,265.610822 123.387018,265.650862 123.834234,265.678582 L123.834234,279.048246 Z M123.218234,290.136246 L107.489906,290.136246 C107.489906,289.172822 107.448018,288.335062 107.49853,287.502846 C107.59401,285.941286 107.743698,284.384654 107.876754,282.744246 L123.218234,282.744246 L123.218234,290.136246 Z M106.489522,235.928246 L92.1995536,235.928246 C91.9888816,233.061998 91.7806736,230.234558 91.5656896,227.304246 L107.004498,227.304246 C106.832018,230.202526 106.665698,232.98623 106.489522,235.928246 L106.489522,235.928246 Z M106.039842,248.660966 C104.749322,249.041654 95.5111696,248.99915 92.8599056,248.582734 C92.6455376,245.728806 92.4348656,242.937094 92.2081776,239.924238 C96.9938816,239.871262 101.65577,239.559566 106.527714,239.755454 C106.360778,242.796646 106.200618,245.735582 106.039842,248.660966 L106.039842,248.660966 Z M105.21625,262.470454 C101.448178,262.62199 97.7133696,262.517886 93.8596736,262.533286 C93.6071136,259.097238 93.3693376,255.871246 93.1254016,252.560246 L105.825474,252.560246 C105.615418,255.96919 105.421994,259.118182 105.21625,262.470454 L105.21625,262.470454 Z M104.293482,279.048246 L95.0405456,279.048246 C94.7060576,274.563766 94.3728016,270.10947 94.0290736,265.496246 L105.010506,265.496246 C104.950138,270.05711 104.52941,274.511406 104.293482,279.048246 L104.293482,279.048246 Z M103.582618,290.476278 C102.285322,290.485518 101.032378,290.497222 99.7782016,290.502766 C98.5554416,290.50831 97.3326816,290.504614 96.0076656,290.504614 C95.6405296,287.873062 95.4988496,285.324054 95.3904336,282.744246 L104.031066,282.744246 C103.881994,285.309886 103.739082,287.783742 103.582618,290.476278 L103.582618,290.476278 Z M141.592282,253.004998 C141.09209,256.269182 140.625162,259.315302 140.150842,262.416246 L127.530234,262.416246 L127.530234,252.902126 C132.246946,252.615686 136.851546,252.997606 141.592282,253.004998 L141.592282,253.004998 Z M127.692242,239.624246 L143.536378,239.624246 C143.036802,242.959886 142.554474,246.179102 142.05921,249.480246 L127.524074,249.480246 C127.199442,246.14707 127.59861,242.961118 127.692242,239.624246 L127.692242,239.624246 Z M127.530234,227.304246 L145.001226,227.304246 C144.77577,230.166182 144.197962,232.887054 143.803722,235.777326 C138.32625,235.860486 132.968898,235.941182 127.530234,236.02311 L127.530234,227.304246 Z M180.111994,213.92719 C180.075034,213.86251 180.036226,213.79783 179.99865,213.733766 C178.506082,213.645062 177.012898,213.553278 175.519714,213.456566 C175.506778,213.456566 175.49877,213.44979 175.487066,213.448558 C159.957706,213.141174 144.42773,212.822702 128.896522,212.53195 C113.300634,212.239966 97.7022816,211.975086 81.7035296,211.69111 C81.7133856,211.680022 81.7201616,211.670782 81.7300176,211.66031 C79.9713376,211.627046 78.2114256,211.599326 76.4527456,211.590086 C76.4053136,211.600558 76.3597296,211.615958 76.3104496,211.62335 L76.3104496,214.138478 C76.3560336,214.138478 76.3997696,214.139094 76.4453536,214.139094 C76.5088016,215.911326 76.5550016,217.628734 76.6338496,219.344294 C76.8266576,223.528166 77.0114576,227.713886 77.2436896,231.895294 C77.3681216,234.13199 77.6176016,236.363758 77.7297136,238.600454 C77.7568176,239.134526 77.4617536,239.682766 77.2911216,240.309854 C77.3539536,240.363446 77.6748896,240.500814 77.6952176,240.67391 C77.8689296,242.12459 77.9878176,243.582662 78.1461296,245.279742 L77.9268336,245.279742 C77.9422336,246.457534 77.9724176,247.635326 78.0019856,248.813118 C78.0722096,248.815582 78.1399696,248.819278 78.2108096,248.822358 C78.2693296,249.48887 78.3303136,250.088238 78.3740496,250.69007 C78.4368816,251.558014 78.4867776,252.42719 78.5440656,253.29575 C78.6857456,255.475158 79.0621216,257.67243 78.9031936,259.830894 C78.7547376,261.853838 79.0368656,263.783766 79.2604736,265.750038 C79.2925056,266.029086 79.2253616,266.319838 79.2025696,266.60443 C79.1674576,267.049798 79.0806016,267.498862 79.1046256,267.94115 C79.1822416,269.367806 79.3116016,270.791998 79.3990736,272.217422 C79.5087216,273.99951 79.5807936,275.784062 79.6996816,277.564302 C79.8579936,279.951918 80.0631216,282.335838 80.2091136,284.723454 C80.2460736,285.324054 80.0655856,285.938206 80.1056256,286.53819 C80.2146576,288.165662 80.4296416,289.786974 80.5226576,291.41383 C80.6255296,293.201462 80.4056176,295.037758 80.7431856,296.771182 C81.2600096,299.426142 80.9039616,302.136542 81.4922416,304.769942 C81.5439856,305.00587 81.3160656,305.355142 81.1324976,305.583062 C81.0351696,305.703798 80.9366096,305.824534 80.8392816,305.94527 C84.9436896,306.041982 89.0456336,306.216926 93.1463456,306.40727 C97.3160496,306.494126 101.485138,306.580366 105.654842,306.628414 C110.455946,306.683854 115.258282,306.64135 120.05877,306.698022 C124.864186,306.75531 129.669602,306.892678 134.475634,306.974606 C138.208594,307.038054 141.943402,307.06331 145.676362,307.126758 C151.051578,307.216694 156.428026,307.272134 161.800162,307.455086 C161.85745,307.336198 161.967714,307.243182 162.140194,307.243798 C163.670954,307.248726 165.200482,307.276446 166.729394,307.302934 C166.69921,307.247494 166.681346,307.184046 166.689354,307.110742 C166.709682,306.90931 166.823026,306.709726 166.823026,306.512606 C166.823026,306.395566 166.87169,306.31487 166.934522,306.250806 C167.393442,303.559502 167.840042,300.976614 168.270626,298.39003 C170.73401,283.569686 173.194314,268.748726 175.656466,253.92715 C175.801226,252.044654 176.06241,250.173246 176.504082,248.336334 C176.519482,248.270422 176.547202,248.218062 176.582314,248.176174 C178.251674,238.133526 179.900706,228.217158 181.543578,218.338982 L181.607026,218.338982 L181.607026,214.930654 C181.000266,214.859814 180.507466,214.616494 180.111994,213.92719 L180.111994,213.92719 Z" id="Fill-18" fill="#02363D"></path>
                        <g id="Group-22" transform="translate(63.448000, 328.878088)">
                            <mask id="mask-13" fill="white">
                                <use xlink:href="#path-12"></use>
                            </mask>
                            <g id="Clip-21"></g>
                            <path d="M106.303921,12.333244 C105.856705,14.478156 105.363289,16.613212 104.877265,18.7495 C104.728809,19.394452 104.541545,20.03078 104.382001,20.673268 C103.801729,23.017148 103.226385,25.363492 102.628865,27.78622 L98.5398568,27.78622 C100.013945,22.268092 101.469553,16.818956 102.956577,11.25586 C103.785097,11.25586 104.596985,11.221364 105.403329,11.266332 C106.170249,11.309452 106.452377,11.624844 106.303921,12.333244 M88.5643528,13.87386 C88.2027608,15.459444 87.6951768,17.011764 87.3089448,18.593652 C86.9153208,20.206956 86.6159448,21.8449 86.2284808,23.459436 C85.8872168,24.879932 85.4806568,26.284412 85.0796408,27.78622 L81.0362168,27.78622 C82.5540408,22.244068 84.0429128,16.81218 85.5841448,11.184404 C86.2044568,11.287276 86.6652248,11.311916 87.0927288,11.44374 C88.5735928,11.900812 88.9025368,12.388068 88.5643528,13.87386 M85.8114488,55.575212 C82.8269288,56.361228 81.5136168,56.409892 79.9003128,55.756932 C79.9003128,54.909316 79.8873768,54.0001 79.9027768,53.090884 C79.9274168,51.56074 79.9847048,50.032444 79.9933288,48.502916 C79.9976408,47.768644 80.2298728,47.34114 81.0460728,47.359004 C82.3218088,47.387956 83.5993928,47.361468 84.8732808,47.39658 C85.4276808,47.411364 85.9790008,47.52286 86.6307288,47.602324 C86.3449048,50.386644 86.0750968,53.004644 85.8114488,55.575212 M84.9065448,66.835076 C84.1217608,68.324564 82.7850408,69.138916 81.2277928,69.605844 C80.9869368,69.6773 80.6333528,69.522068 80.3832568,69.381004 C79.9877848,69.159244 79.6354328,68.85802 79.2547448,68.583284 C79.0736408,67.945724 78.9627608,67.398716 78.7637928,66.88374 C78.3005608,65.688084 78.3738648,65.243948 79.3366728,64.509676 C80.2218648,63.833308 81.1323128,63.185892 82.0446088,62.545868 C82.6723128,62.107276 83.7854248,62.230476 84.0749448,62.847708 C84.4987528,63.751996 84.8357048,64.705564 85.1036648,65.667756 C85.1997608,66.01518 85.0827208,66.498124 84.9065448,66.835076 M72.4288488,12.917828 C72.0955928,14.516348 71.6785608,16.097004 71.2750808,17.679508 C70.9874088,18.809252 70.6239688,19.921132 70.3640168,21.057652 C69.8588968,23.271556 69.4030568,25.497164 68.9102568,27.78622 L65.1150808,27.78622 C65.9744008,22.186164 67.7472488,16.871316 69.0359208,11.238612 C69.6562328,11.238612 70.3061128,11.229372 70.9541448,11.242308 C72.2422008,11.268796 72.6783288,11.71786 72.4288488,12.917828 M57.0448648,13.967492 C56.8120168,15.271564 56.5107928,16.56578 56.2064888,17.8563 C55.4346408,21.125412 54.6467768,24.390828 53.8330408,27.78622 L49.9848888,27.78622 C50.0440248,27.326068 50.0563448,26.889324 50.1598328,26.475372 C51.2624728,22.06358 52.3688088,17.652404 53.5010168,13.248004 C53.6716488,12.588268 53.6975208,11.77946 54.5340488,11.515812 C55.5153368,11.208428 56.1732248,11.799172 56.8378888,12.386836 C57.3818168,12.867316 57.1378808,13.450052 57.0448648,13.967492 M49.1046248,54.89022 L40.7418088,54.89022 C40.8625448,52.182284 40.9783528,49.566748 41.0978568,46.88222 L49.8542968,46.88222 C50.0095288,49.635124 49.7181608,52.283308 49.1046248,54.89022 M44.0860728,69.291684 C42.9298408,70.09926 41.8444488,69.931708 40.6839048,69.197436 C39.5905048,68.5069 39.5763368,67.499124 39.7568248,66.500588 C40.1479848,64.343356 41.3140728,62.763316 43.5051848,62.099884 C44.1920248,61.891676 44.8129528,61.941572 45.3186888,62.536012 C45.9605608,63.289996 46.6209128,64.027964 47.1691528,64.65382 C46.8211128,66.841852 45.6451688,68.201364 44.0860728,69.291684 M35.4922568,27.621132 C33.3344088,27.842276 32.9882168,27.80778 31.9108328,27.24722 C33.3713688,21.920052 34.8337528,16.580564 36.3201608,11.15422 L39.6089848,11.15422 C39.9274568,12.662804 39.0558168,16.1315 35.4922568,27.621132 M22.2611928,12.741652 C22.1466168,13.631156 21.9199288,14.518196 21.6439608,15.376284 C20.6793048,18.381132 19.7700888,21.396452 19.1682568,24.50294 C18.9582008,25.587716 18.5257688,26.626292 18.1641768,27.78622 L14.6437368,27.78622 C15.8997608,22.19294 17.2580408,16.712388 19.0924888,11.257092 C19.7528408,11.257092 20.4193528,11.204732 21.0747768,11.270028 C21.8078168,11.343332 22.3554408,12.01046 22.2611928,12.741652 M112.609913,3.141292 C112.616689,3.168396 112.621001,3.191188 112.629009,3.22014 C109.654961,3.111108 106.817049,2.97682 103.979137,2.917684 C101.164633,2.859164 98.3495128,2.908444 95.5368568,2.854852 C92.6706088,2.799412 89.8080568,2.662044 86.9424248,2.583196 C84.1273048,2.506812 81.3128008,2.453836 78.4970648,2.398396 C75.6289688,2.339876 72.7621048,2.310308 69.8958568,2.233308 C67.0813528,2.158156 64.2699288,2.028796 61.4554248,1.943172 C58.5922568,1.855084 55.7284728,1.792868 52.8646888,1.713404 C50.0489528,1.635788 47.2332168,1.552628 44.4168648,1.471932 C41.5543128,1.388772 38.6899128,1.306844 35.8255128,1.224916 C33.0122408,1.146068 30.1965048,1.07646 27.3826168,0.99022 C24.5188328,0.900284 21.6538168,0.797412 18.7906488,0.69762 C15.9860008,0.601524 13.1801208,0.551628 10.3804008,0.38654 C7.9194808,0.241164 5.4234488,0.672364 2.9834728,0.158004 C2.0588568,0.14938 1.1336248,0.138908 0.2090088,0.125972 C0.1695848,0.844228 0.165836869,1.567412 0.165836869,2.28074 C0.1745128,15.721244 0.2071608,29.162364 0.2743048,42.603484 C0.2804648,43.849036 0.5804568,45.09274 0.7443128,46.334596 C2.2676808,46.41714 3.6456728,46.534796 5.0230488,46.561284 C9.0215048,46.633972 13.0211928,46.67894 17.0208808,46.71898 C23.2763608,46.781812 29.5318408,46.828012 35.7879368,46.88838 C36.2819688,46.893308 36.7753848,46.95306 37.4646888,47.001724 C37.3217768,49.92834 37.2041208,52.72806 37.0291768,55.524084 C36.9897528,56.166572 36.5326808,56.599004 35.9388568,56.895916 C34.3957768,57.666532 33.3873848,58.966908 32.9623448,60.57282 C31.8048808,64.945804 31.7106328,69.238708 34.0040008,73.386236 C35.9721208,76.944252 39.1180328,78.686916 43.1534488,78.130052 C44.3121448,77.97174 45.4948648,77.81466 46.5962728,77.446292 C48.3715848,76.851236 50.2910408,76.500732 51.6887448,75.08886 C52.7402568,74.025644 53.8459768,72.993844 54.7324008,71.79942 C55.2295128,71.129828 55.5757048,70.358596 55.7937688,69.5541 C56.3882088,67.352516 56.5231128,65.092412 56.5034008,62.805204 C56.4861528,60.64058 55.5214968,59.118444 53.8632248,57.89938 C53.4227848,57.57598 52.9989768,57.229172 52.7538088,57.037596 C53.0876808,53.64282 53.3969128,50.502452 53.7270888,47.15634 C61.3895128,47.256132 69.0568648,47.35654 76.8572728,47.45818 C76.9810888,50.582532 76.9071688,53.520852 76.5227848,56.378476 C73.6528408,58.498132 71.5436568,60.944884 71.1155368,64.637188 C70.6714008,68.457004 71.9095608,71.54378 74.4942968,74.255412 C76.0386088,75.876724 77.8065288,76.787788 80.0894248,76.558636 C80.4368488,76.522908 80.7972088,76.670748 81.1538728,76.688612 C83.0764088,76.781012 84.9361128,76.67814 86.4878168,75.285364 C87.6187928,74.270812 88.8889848,73.402868 89.9731448,72.343964 C91.4195128,70.932092 92.4562408,69.291684 92.6823128,67.166484 C92.8911368,65.206372 92.8467848,63.312172 92.3700008,61.390868 C91.9813048,59.825612 91.3123288,58.513532 89.9115448,57.67454 C89.2444168,57.276604 89.0405208,56.771484 89.1279928,56.018116 C89.3503688,54.142396 89.5179208,52.260516 89.6971768,50.380484 C89.7834168,49.486052 89.8456328,48.589156 89.9257128,47.61834 C98.6039208,47.740308 107.095481,47.857964 115.622153,47.975004 C115.727489,46.258212 115.896273,44.734844 115.903049,43.210244 C115.957873,30.128868 115.991137,17.047492 115.997913,3.966116 C115.997913,3.735732 115.977585,3.499188 115.948633,3.262028 C114.836753,3.20782 113.723641,3.165316 112.609913,3.141292" id="Fill-20" fill="#02363D" mask="url(#mask-13)"></path>
                        </g>
                        <path d="M180.625183,185.627966 C148.386207,184.084886 116.270431,183.88407 84.0819672,182.455566 C84.1719032,176.635598 84.1589672,171.024454 84.3714872,165.426246 C84.5883192,159.701758 84.7121352,153.987126 84.6745592,148.255862 C84.6400632,142.880646 84.8464232,137.501734 84.9603832,132.125902 C85.0503192,127.873654 85.1414872,123.62079 85.2683832,119.369774 C85.3496952,116.631654 85.4963032,113.896614 85.6219672,110.972462 C118.101799,112.544494 150.505247,114.114678 183.036207,115.691022 C183.036207,116.513382 183.055919,117.064702 183.031279,117.614174 C182.943191,119.609398 182.816911,121.602774 182.744223,123.59923 C182.550799,128.955966 182.368463,134.313934 182.195367,139.673134 C182.059847,143.925998 181.955743,148.179478 181.815295,152.432342 C181.650207,157.495862 181.441999,162.555686 181.288615,167.61859 C181.133999,172.722766 181.032359,177.82571 180.884519,182.926806 C180.860495,183.777502 180.725591,184.62327 180.625183,185.627966" id="Fill-23" fill="#ACCFCB"></path>
                        <path d="M177.927165,335.678112 C174.854557,335.539512 171.921165,335.367648 168.987773,335.293112 C166.080869,335.21796 163.170269,335.280792 160.263365,335.213032 C157.302253,335.142192 154.342373,334.967248 151.381877,334.866224 C148.472509,334.76828 145.563141,334.701136 142.653773,334.62968 C139.690197,334.55576 136.726621,334.516952 133.764893,334.419624 C130.856757,334.324144 127.949853,334.159056 125.042333,334.049408 C122.083069,333.937296 119.123189,333.857832 116.163309,333.756808 C113.253941,333.657632 110.343341,333.550448 107.433357,333.448808 C104.474093,333.34224 101.514829,333.23752 98.5537168,333.133416 C95.6461968,333.032392 92.7374448,332.944304 89.8280768,332.833424 C86.8694288,332.718848 83.9083168,332.58764 80.9484368,332.460128 C78.0501568,332.336928 75.1512608,332.27348 72.2579088,332.063424 C69.3818048,331.8546 66.4607328,332.59072 63.6277488,331.4542 C63.6252848,331.393216 63.6012608,331.295888 63.6228208,331.276176 C65.3180528,329.762664 66.1157728,327.285112 67.6372928,325.58064 C67.9446768,325.236296 68.1658208,324.7706 68.4171488,324.354184 C68.7916768,323.72956 69.0633328,322.942312 69.5444288,322.495712 C71.9369728,320.260864 73.3913488,316.980048 75.5448848,314.469848 C77.0719488,312.688992 78.4505568,310.668512 79.6905648,308.572264 C80.5609728,307.100024 81.6118688,305.864944 82.5420288,304.482024 C83.5257808,303.019024 84.7540848,302.356824 86.3236528,302.616776 C87.3018608,302.780632 88.2985488,302.80096 89.2884608,302.826216 C94.5749728,302.958656 99.8621008,303.107112 105.149229,303.182264 C110.111109,303.252488 115.074221,303.19828 120.034869,303.270968 C125.001061,303.344272 129.967253,303.5186 134.934061,303.623936 C138.792069,303.704632 142.651309,303.736664 146.509317,303.816744 C152.154957,303.933784 157.800597,304.004008 163.441309,304.247328 C165.021965,304.314472 166.425829,305.03396 167.150861,307.188112 C168.364997,310.79664 169.726973,314.334328 171.096957,317.857848 C172.603077,321.732488 174.193589,325.554152 175.737285,329.406 C176.387781,331.033472 177.017333,332.672032 177.635797,334.3186 C177.761461,334.651856 177.795341,335.039936 177.927165,335.678112" id="Fill-25" fill="#ACCFCB"></path>
                        <path d="M78.7018232,239.78607 C78.7726632,239.84459 79.1305592,239.996126 79.1533512,240.185854 C79.3480072,241.784374 79.4816792,243.390902 79.6584712,245.260462 C78.5188712,245.260462 77.6201272,245.253686 76.7213832,245.260462 C73.3056632,245.291878 69.8905592,245.351014 66.4754552,245.352862 C64.6502472,245.354094 62.8250392,245.197014 60.9998312,245.220422 C56.4599112,245.275246 51.9206072,245.424934 47.3794552,245.469286 C45.7889432,245.483454 44.1978152,245.241982 42.6042232,245.225966 C39.3517432,245.195166 36.0980312,245.220422 32.8455512,245.256766 C30.2805272,245.285102 27.7161192,245.389206 25.1517112,245.399062 C24.6736952,245.402142 24.1981432,245.024534 23.7139672,245.004822 C23.2993992,244.98819 22.8737432,245.235822 22.2602072,245.426166 C22.1326952,244.234206 21.9460472,243.160518 21.9140152,242.081286 C21.8327032,239.275406 21.8179192,236.468294 21.7766472,233.661798 C21.7476952,231.706614 21.7156632,229.750814 21.6873272,227.796862 C21.6466712,225.051966 21.5770632,222.307686 21.5782791,219.56279 C21.5801432,217.497958 21.6737752,215.433742 21.7292152,213.369526 C21.7353752,213.144686 21.7772632,212.919846 21.7717192,212.695006 C21.7279832,210.999158 21.7255192,210.974518 23.3770152,210.960966 C27.7697112,210.927086 32.1611752,210.912918 36.5532552,210.903678 C38.0926392,210.899366 39.6326392,210.960966 41.1707912,210.941254 C43.3748392,210.910454 45.5782791,210.791566 47.7810872,210.787254 C50.2838952,210.779246 52.7953272,210.747214 55.2833512,210.949878 C56.3169992,211.033038 57.2816552,211.62255 58.4187912,211.312086 C60.9770392,210.614158 63.5593112,210.778014 66.1853192,211.027494 C68.3887512,211.238166 70.6365352,210.986838 72.8646072,210.96035 C74.4495752,210.941254 76.0345432,210.956654 77.7574952,210.956654 C77.8277192,212.908758 77.8800792,214.800494 77.9681672,216.689766 C78.1825352,221.298678 78.3901272,225.910054 78.6494632,230.515886 C78.7880632,232.980502 79.0671112,235.437726 79.1927752,237.902342 C79.2229592,238.490006 78.8927832,239.094302 78.7018232,239.78607" id="Fill-27" fill="#30AABC" style="mix-blend-mode: multiply;"></path>
                        <path d="M180.591488,218.366826 C184.278248,218.366826 187.713064,218.368058 191.148496,218.365594 C192.679872,218.365594 194.211864,218.371138 195.744472,218.35081 C199.321584,218.300298 202.89808,218.201122 206.47396,218.190034 C209.191136,218.182642 211.908312,218.328634 214.624256,218.31693 C219.729048,218.294138 224.834456,218.202354 229.939248,218.148762 C230.892816,218.13829 231.822976,218.746282 232.926848,218.009546 C233.807728,229.289122 233.21144,240.356178 233.414104,251.456498 C233.039576,251.478058 232.701392,251.515018 232.363824,251.515634 C221.710104,251.574154 211.056384,251.622202 200.402664,251.684418 C192.552976,251.732466 184.703904,251.797146 176.854216,251.85197 C176.235752,251.856898 175.616672,251.85197 174.884248,251.85197 C176.805552,240.574858 178.702216,229.450514 180.591488,218.366826" id="Fill-29" fill="#30AABC"></path>
                        <path d="M175.837939,216.533856 C160.192155,216.17288 144.544523,215.798352 128.896891,215.456472 C113.301003,215.115208 97.7020352,214.807208 81.7038992,214.4758 C82.3359152,213.622024 82.7073632,213.028816 83.1564272,212.530472 C84.7432432,210.768712 86.3485392,209.02728 87.9636912,207.300632 C88.6345152,206.583608 89.3995872,205.97808 90.0322192,205.222864 C92.7420032,201.993176 95.4092832,198.717288 98.1202992,195.491296 C98.3654672,195.197464 98.8139152,195.02252 99.1773552,195.00404 C100.042219,194.958456 100.912627,195.0256 101.780571,195.071184 C103.767787,195.17344 105.754387,195.323128 107.740371,195.393968 C110.498819,195.492528 113.256035,195.519632 116.014483,195.602792 C119.897131,195.719832 123.779163,195.871984 127.663043,195.982864 C128.623387,196.010584 129.584347,195.897856 130.544691,195.924344 C131.907283,195.96192 133.266795,196.081424 134.628771,196.143024 C139.072595,196.351232 143.517035,196.595784 147.964555,196.735616 C150.868379,196.826168 153.776515,196.721448 156.680339,196.783048 C158.450107,196.820008 160.217411,197.038688 161.986563,197.11384 C162.642603,197.142792 163.311579,197.043616 163.964539,196.92288 C165.260603,196.680176 166.152571,197.111992 166.867131,198.522016 C167.924803,200.610256 169.461723,202.412672 170.295787,204.597624 C171.137243,206.799208 172.310723,208.719896 173.307411,210.785344 C174.171043,212.57852 175.157875,214.293464 176.089883,216.04044 C176.005491,216.204296 175.922947,216.368152 175.837939,216.533856" id="Fill-31" fill="#ACCFCB"></path>
                        <path d="M151.709281,268.250198 C151.657537,265.692566 151.642753,265.675934 149.096825,265.701806 C148.995185,265.703038 148.892929,265.699342 148.790673,265.703038 C146.855201,265.771414 145.804305,266.83463 145.798145,268.737454 C145.796297,269.299862 145.806769,269.861038 145.803073,270.422214 C145.797529,271.196526 146.257681,271.685014 146.897089,271.93819 C148.772193,272.67739 150.778505,271.791582 151.494913,269.893686 C151.685257,269.391646 151.645217,268.800286 151.709281,268.250198 L151.709281,268.250198 Z M148.984713,279.965902 C148.984713,279.505134 149.001961,279.045598 148.981017,278.587294 C148.935433,277.595534 148.719217,277.333734 147.705281,277.270902 C146.740009,277.210534 145.764265,277.206838 144.799609,277.278294 C144.440481,277.306014 144.037001,277.54687 143.767809,277.807438 C142.461889,279.07455 142.733545,280.718038 142.913417,282.260502 C142.984873,282.883894 143.629209,283.375462 144.377033,283.400102 C145.190769,283.429054 146.016209,283.469094 146.823169,283.385318 C148.076113,283.254726 148.961921,282.17611 148.985329,280.883742 C148.991489,280.578206 148.986561,280.271438 148.984713,279.965902 L148.984713,279.965902 Z M151.567601,254.478286 C151.339065,254.478286 150.878913,254.472126 150.418761,254.478286 C149.196001,254.498614 148.227033,254.989566 147.681873,256.108838 C147.050473,257.410446 147.182913,258.800758 147.564217,260.110374 C147.754561,260.765798 148.398281,261.258598 149.228649,261.24751 C150.046697,261.236422 150.864745,261.261062 151.680945,261.23211 C151.917489,261.225334 152.199001,261.14895 152.373329,261.001726 C153.579457,259.98471 154.452329,258.827246 154.448033,257.10491 C154.442473,254.595942 154.321121,254.36679 151.567601,254.478286 L151.567601,254.478286 Z M155.657841,246.95323 C155.657841,246.529422 155.659073,246.324294 155.657225,246.119782 C155.644289,244.311206 154.879217,243.53443 153.060169,243.544902 C152.348689,243.547982 151.634745,243.61759 150.926345,243.69767 C149.550817,243.854134 148.719217,244.748566 148.675481,246.104998 C148.652689,246.820174 148.615729,247.543358 148.693345,248.249294 C148.741393,248.670638 148.910793,249.142494 149.180601,249.462198 C150.569681,251.11123 153.131009,251.124782 154.708585,249.659934 C155.620265,248.814782 155.729913,247.833494 155.657841,246.95323 L155.657841,246.95323 Z M153.225873,239.696134 C153.585001,239.696134 153.944745,239.67211 154.302025,239.701062 C155.676937,239.811326 156.588617,239.072742 157.421449,238.100694 C158.395345,236.962942 158.225329,235.616366 158.219169,234.296278 C158.209313,231.847062 155.393577,230.155526 153.288705,231.431878 C152.264913,232.053422 151.414217,232.986662 150.567217,233.858918 C150.284473,234.14967 150.161889,234.680662 150.129857,235.11371 C150.063329,235.97919 150.079345,236.856374 150.118153,237.72555 C150.174209,238.967406 150.914641,239.664102 152.149721,239.695518 C152.508849,239.703526 152.866745,239.696134 153.225873,239.696134 L153.225873,239.696134 Z M139.329529,290.136062 C139.596873,288.22523 139.833417,286.40495 140.107537,284.588982 C141.003817,278.678462 141.918577,272.768558 142.816705,266.858654 C143.884849,259.834406 144.940057,252.808926 146.002041,245.784678 C146.882305,239.97395 147.769345,234.163838 148.647145,228.351262 C148.838721,227.085998 148.870753,226.978814 149.831713,226.974502 C154.141249,226.956638 158.451401,226.97019 162.760937,226.980046 C162.956209,226.980046 163.149017,227.057662 163.328889,227.097086 C163.404657,229.524742 150.551201,286.794262 149.184913,290.136062 L139.329529,290.136062 Z" id="Fill-33" fill="#30AABC"></path>
                        <path d="M218.25533,362.432594 C218.25533,361.167946 218.268266,360.170026 218.252866,359.172722 C218.200506,355.816138 217.708322,352.523618 217.031954,349.271138 C216.19789,345.268986 213.630402,344.622186 210.938482,345.342906 C209.361522,345.766098 208.064226,346.729522 207.077394,348.296626 C204.776634,351.948274 203.892058,356.076706 203.759618,360.487266 C203.74545,360.95789 203.754074,361.428514 203.747298,361.899138 C203.746682,361.953346 203.718346,362.009402 203.649354,362.25765 C202.532546,362.376538 201.340586,362.509594 200.147394,362.624786 C199.569586,362.681458 199.204914,362.419658 199.003482,361.73713 C197.846634,357.821834 197.454242,353.881898 198.37085,349.805826 C199.42729,345.103282 201.126218,340.743234 203.362298,336.640058 C203.715266,335.992026 204.135378,335.35693 204.331882,334.64545 C204.644194,333.511394 205.278674,333.309346 206.19713,333.335834 C209.373842,333.428234 212.552402,333.45965 215.730346,333.500922 C217.16501,333.518786 218.600906,333.504002 220.031874,333.504002 C225.968882,342.136626 227.14113,351.828154 225.273418,362.432594 L218.25533,362.432594 Z" id="Fill-35" fill="#30AABC"></path>
                        <path d="M50.5300488,131.095765 L35.3234728,131.095765 C29.3581288,121.419637 28.2850568,110.644565 30.0917848,98.8660288 C32.4627688,98.8352288 34.7444328,98.4951968 37.1215768,98.9054528 C37.1215768,100.232933 37.1074088,101.344197 37.1240408,102.454229 C37.1819448,106.201973 37.6932248,109.865325 38.3418728,113.509581 C39.2202888,118.443125 42.3625048,118.839829 44.9706488,117.769837 C46.3492568,117.204349 47.4592888,116.140517 48.3512568,114.565405 C49.3867528,112.740813 50.0606568,110.801645 50.5688568,108.678293 C51.2889608,105.672829 51.5981928,102.533077 51.6197528,99.3877808 C51.6203688,99.2812128 51.6209848,99.1697168 51.6209848,99.0526768 C53.1277208,98.8728048 54.5235768,98.7058688 56.0050568,98.5296928 C57.2807928,102.641493 57.9029528,106.677525 57.3183688,110.928541 C56.5064808,116.817501 54.6172088,122.158837 52.2486888,127.256853 C51.6493208,128.546141 51.0696648,129.851445 50.5041768,131.095765" id="Fill-37" fill="#30AABC"></path>
                        <path d="M123.834049,265.496246 L123.834049,279.048246 L107.994225,279.048246 C107.994225,278.359558 107.961577,277.714606 107.999769,277.07335 C108.190113,273.812246 108.418649,270.55299 108.589897,267.290654 C108.674289,265.694598 108.694001,265.61267 110.225993,265.608358 C114.375985,265.599734 118.525361,265.604662 122.674737,265.610206 C123.031401,265.610206 123.386833,265.650862 123.834049,265.678582" id="Fill-39" fill="#30AABC"></path>
                        <path d="M137.386049,279.048246 L126.914049,279.048246 L126.914049,265.496246 L139.153353,265.496246 C139.415153,266.738718 138.201017,275.605422 137.293649,279.048246" id="Fill-41" fill="#30AABC"></path>
                        <path d="M143.536439,239.624246 C143.036247,242.95927 142.553919,246.178486 142.059271,249.480246 L127.524135,249.480246 C127.199503,246.14707 127.598055,242.960502 127.691687,239.624246 L143.536439,239.624246 Z" id="Fill-43" fill="#30AABC"></path>
                        <path d="M127.530049,235.928246 L127.530049,227.304246 L145.001041,227.304246 C144.775585,230.166182 144.198393,232.887054 143.803537,235.777326 C138.326065,235.85987 132.968713,235.941182 127.530049,236.02311" id="Fill-45" fill="#30AABC"></path>
                        <path d="M109.250988,252.472405 C114.179604,252.500125 118.965924,252.414501 123.834172,252.566037 L123.834172,262.036421 C122.639748,262.382613 110.409068,262.441749 108.680572,262.098021 C108.86722,258.947797 109.056332,255.776013 109.250988,252.472405" id="Fill-47" fill="#30AABC"></path>
                        <path d="M92.1996768,235.928246 C91.9890048,233.061998 91.7801808,230.233942 91.5658128,227.304246 L107.004621,227.304246 C106.832141,230.202526 106.665205,232.985614 106.489645,235.928246 L92.1996768,235.928246 Z" id="Fill-49" fill="#30AABC"></path>
                        <path d="M94.2660488,265.496246 L105.010321,265.496246 C104.950569,270.05711 104.528609,274.51079 104.292681,279.048246 L95.0397448,279.048246 C94.7052568,274.563766 94.3726168,270.10947 94.0282728,265.496246" id="Fill-51" fill="#30AABC"></path>
                        <path d="M109.292506,248.860058 C109.46437,245.783138 109.630074,242.841738 109.800706,239.791306 C114.522346,239.414314 119.159594,239.586178 123.833802,239.543674 L123.833802,249.016522 C118.995122,249.158818 114.259314,249.078122 109.292506,248.860058" id="Fill-53" fill="#30AABC"></path>
                        <path d="M141.59222,253.004814 C141.092028,256.27023 140.626332,259.315734 140.15078,262.416062 L127.530172,262.416062 L127.530172,252.901942 C132.246884,252.615502 136.850868,252.997422 141.59222,253.004814" id="Fill-55" fill="#30AABC"></path>
                        <path d="M107.489598,290.136246 C107.489598,289.172822 107.448326,288.335062 107.498838,287.502846 C107.594318,285.941286 107.74339,284.384654 107.876446,282.744246 L123.217926,282.744246 L123.217926,290.136246 L107.489598,290.136246 Z" id="Fill-57" fill="#30AABC"></path>
                        <path d="M92.8602136,248.582734 C92.6452296,245.72819 92.4357896,242.937094 92.2078696,239.924238 C96.9935736,239.871262 101.655462,239.560798 106.527406,239.755454 C106.361086,242.796646 106.20031,245.735582 106.04015,248.660966 C104.74963,249.041038 95.5114776,248.99915 92.8602136,248.582734" id="Fill-59" fill="#30AABC"></path>
                        <path d="M124.450049,227.304246 L124.450049,235.89375 C119.767833,236.283678 115.158921,236.046518 110.396625,236.114894 C110.584505,233.05399 110.759449,230.22963 110.939937,227.304246 L124.450049,227.304246 Z" id="Fill-61" fill="#30AABC"></path>
                        <path d="M105.825104,252.560246 C105.615048,255.968574 105.422856,259.118182 105.216496,262.470454 C101.44904,262.62199 97.713,262.517886 93.859304,262.53267 C93.606744,259.096622 93.368968,255.871246 93.125032,252.560246 L105.825104,252.560246 Z" id="Fill-63" fill="#30AABC"></path>
                        <path d="M136.904214,282.359246 C136.486566,285.10291 136.107726,287.60079 135.722726,290.136246 L126.913926,290.136246 L126.913926,282.398054 C130.263734,282.313046 133.452766,282.372798 136.904214,282.359246" id="Fill-65" fill="#30AABC"></path>
                        <path d="M104.189439,383.768246 C104.309559,381.06031 104.426599,378.444158 104.544871,375.760246 L113.302543,375.760246 C113.458391,378.51315 113.166407,381.161334 112.552255,383.768246 L104.189439,383.768246 Z" id="Fill-67" fill="#30AABC"></path>
                        <path d="M166.338049,356.664246 L161.987857,356.664246 C163.461945,351.146118 164.917553,345.696982 166.403961,340.133886 C167.233097,340.133886 168.044985,340.098774 168.851329,340.143742 C169.618249,340.187478 169.900377,340.502254 169.751921,341.21127 C169.304089,343.356182 168.810673,345.491238 168.324649,347.627526 C168.176809,348.272478 167.989545,348.908806 167.830617,349.551294 C167.249113,351.895174 166.675001,354.241518 166.076865,356.664246" id="Fill-69" fill="#30AABC"></path>
                        <path d="M99.8100488,340.032246 L103.056985,340.032246 C103.375457,341.540214 102.503817,345.00891 98.9402568,356.498542 C96.7824088,356.720302 96.4362168,356.68519 95.3588328,356.125246 C96.8187528,350.798078 98.2811368,345.457974 99.7675448,340.032246" id="Fill-71" fill="#30AABC"></path>
                        <path d="M132.458049,356.664246 L128.563081,356.664246 C129.422401,351.06419 131.195249,345.749342 132.483921,340.117254 C133.104233,340.117254 133.754113,340.107398 134.402145,340.120334 C135.690201,340.147438 136.126329,340.595886 135.876849,341.795854 C135.543593,343.394374 135.126561,344.97503 134.723081,346.557534 C134.435409,347.687278 134.071969,348.799158 133.812017,349.935678 C133.306897,352.149582 132.850441,354.37519 132.358257,356.664246" id="Fill-73" fill="#30AABC"></path>
                        <path d="M95.4980488,282.744246 L104.030881,282.744246 C103.881809,285.309886 103.739513,287.783126 103.582433,290.476278 C102.285137,290.484902 101.031577,290.497222 99.7780168,290.502766 C98.5558728,290.507694 97.3324968,290.503998 96.0074808,290.503998 C95.6397288,287.873062 95.4992808,285.323438 95.3902488,282.744246" id="Fill-75" fill="#30AABC"></path>
                        <path d="M149.03233,340.062307 C149.652642,340.165179 150.11341,340.189819 150.540298,340.321643 C152.022394,340.778715 152.351338,341.265971 152.012538,342.751763 C151.650946,344.337347 151.143362,345.889667 150.75713,347.471555 C150.36289,349.084859 150.06413,350.723419 149.676666,352.337339 C149.334786,353.757835 148.928842,355.162315 148.528442,356.664123 L144.483786,356.664123 C146.002226,351.121971 147.491098,345.689467 149.03233,340.062307" id="Fill-77" fill="#30AABC"></path>
                        <path d="M81.3300488,356.664246 L78.0917368,356.664246 C79.3477608,351.070966 80.7060408,345.590414 82.5411048,340.135118 C83.2008408,340.135118 83.8673528,340.082758 84.5227768,340.148054 C85.2564328,340.221358 85.8034408,340.888486 85.7091928,341.619678 C85.5946168,342.509182 85.3679288,343.396222 85.0913448,344.25431 C84.1273048,347.259158 83.2174728,350.274478 82.6162568,353.380966 C82.4062008,354.465126 81.9737688,355.504318 81.6121768,356.664246" id="Fill-79" fill="#30AABC"></path>
                        <path d="M117.058049,356.664246 L113.432889,356.664246 C113.492641,356.204094 113.503729,355.76735 113.607217,355.353398 C114.709857,350.941606 115.816809,346.531046 116.949017,342.12603 C117.119033,341.466294 117.144905,340.657486 117.982665,340.393838 C118.963337,340.08707 119.621225,340.677198 120.285889,341.264862 C120.830433,341.745342 120.585265,342.328694 120.492865,342.845518 C120.260017,344.14959 119.959409,345.443806 119.655105,346.734942 C118.883257,350.003438 118.094161,353.268854 117.281041,356.664246" id="Fill-81" fill="#30AABC"></path>
                        <path d="M150.078421,376.480289 C149.791981,379.265225 149.524021,381.883225 149.259141,384.453177 C146.274005,385.239193 144.961309,385.287857 143.347389,384.634897 C143.347389,383.787281 143.336301,382.878065 143.349853,381.968233 C143.374493,380.438705 143.432397,378.910409 143.442253,377.380881 C143.445333,376.647225 143.677565,376.218489 144.494997,376.236353 C145.770117,376.265921 147.046469,376.239433 148.320973,376.274545 C148.875989,376.289329 149.426693,376.400209 150.078421,376.480289" id="Fill-83" fill="#30AABC"></path>
                        <path d="M110.617153,393.5316 C110.269729,395.720248 109.093169,397.07976 107.534073,398.169464 C106.377841,398.977656 105.291833,398.809488 104.131905,398.075216 C103.038505,397.385296 103.024337,396.376904 103.204825,395.378368 C103.595985,393.221136 104.762073,391.641712 106.952569,390.977664 C107.640025,390.770072 108.260953,390.819968 108.766689,391.413792 C109.408561,392.167776 110.068913,392.905128 110.617153,393.5316" id="Fill-85" fill="#30AABC"></path>
                        <path d="M142.702683,397.461618 C142.521579,396.824058 142.410699,396.276434 142.211731,395.761458 C141.748499,394.566418 141.821803,394.121666 142.784611,393.38801 C143.669803,392.711026 144.580251,392.06361 145.492547,391.423586 C146.120251,390.984994 147.233363,391.108194 147.522883,391.725426 C147.946691,392.629714 148.284259,393.583282 148.551603,394.545474 C148.647699,394.893514 148.530659,395.375842 148.354483,395.712794 C147.569699,397.202282 146.232979,398.016634 144.675731,398.483562 C144.435491,398.555018 144.081291,398.399786 143.831195,398.259338 C143.435723,398.036962 143.083371,397.735738 142.702683,397.461618" id="Fill-87" fill="#30AABC"></path>
                        <path d="M123.230122,161.487295 C125.325754,161.487295 127.431858,161.625895 129.514554,161.460807 C136.037378,160.947063 142.58053,160.571303 149.02389,159.332527 C153.417818,158.486759 157.697786,157.268927 161.407954,154.650927 C165.382386,151.846279 168.316394,148.256231 169.094402,143.289423 C169.52745,140.522351 169.575498,137.766367 167.671442,135.387375 C165.349122,132.487247 162.182266,131.233071 158.634106,130.714399 C157.98361,130.620151 157.333114,130.520359 156.681386,130.448903 C155.105658,130.277655 153.531778,130.073143 151.951738,129.971503 C150.272522,129.863087 148.58345,129.907439 146.905466,129.786087 C145.948818,129.716479 145.00757,129.447903 144.05893,129.272959 C143.314186,129.135591 142.571906,128.903359 141.825314,128.887343 C139.45433,128.836831 137.080882,128.849767 134.709282,128.871943 C131.853506,128.898431 128.995882,128.915063 126.143186,129.022247 C123.806082,129.109719 121.472674,129.435583 119.136186,129.458375 C114.200178,129.507039 109.51673,130.663271 104.941698,132.396079 C101.267874,133.787623 98.8593144,136.393303 98.0424984,140.203879 C97.0193224,144.983423 97.2823544,149.745103 99.0176264,154.371879 C99.6718184,156.116391 100.76645,157.531343 102.365586,158.443023 C103.415866,159.043007 104.596738,159.451415 105.763442,159.804999 C111.46637,161.531647 117.328226,161.760799 123.230122,161.487295 M95.2452424,145.143583 C95.4793224,142.705455 95.7072424,140.267943 95.9468664,137.831047 C96.0602104,136.697607 96.4944904,135.720631 97.1542264,134.765831 C98.3788344,132.994831 99.5073464,131.162847 101.45329,130.068215 C102.164154,129.667815 102.874402,129.255711 103.619146,128.927999 C107.102626,127.394159 110.749962,126.417183 114.516186,125.927463 C116.390058,125.684143 118.286106,125.581887 120.174146,125.482711 C123.492538,125.308383 126.812778,125.122351 130.134866,125.060135 C133.100906,125.004079 136.07249,125.134671 139.039762,125.133439 C141.456946,125.132823 143.810066,125.419879 146.166266,126.022943 C147.52393,126.369751 149.01773,126.178175 150.44993,126.239159 C151.524234,126.285359 152.620714,126.514511 153.664834,126.365439 C155.561498,126.094399 157.397794,126.264415 159.19405,126.789863 C160.528306,127.180407 161.810202,127.761295 163.101338,128.292903 C163.801114,128.582423 164.553866,128.740119 165.23393,128.978511 C166.335338,129.362895 167.532226,130.076839 168.19073,131.005151 C170.125586,133.730951 171.565178,136.735183 171.810962,140.153983 C171.989602,142.637695 171.368058,145.022847 170.620234,147.347015 C168.96997,152.469671 165.545626,156.191543 160.851706,158.622279 C158.195514,159.998423 155.292922,160.919343 152.456858,161.922807 C151.371466,162.306575 150.162874,162.348463 149.010338,162.546199 C145.84841,163.088279 142.687714,163.631591 139.524554,164.165047 C139.175282,164.223567 138.81369,164.232807 138.458874,164.232191 C136.564058,164.230343 134.698194,164.453335 132.818778,164.704663 C130.606722,165.000959 128.349082,164.983711 126.108074,165.053935 C124.272394,165.112455 122.43425,165.135247 120.597954,165.109991 C118.87069,165.085351 117.144658,164.991719 115.419242,164.902399 C113.647626,164.811231 111.859994,164.801991 110.112402,164.538343 C108.61121,164.311655 107.156834,163.772039 105.679666,163.380879 C105.287274,163.276775 104.869626,163.253983 104.490786,163.119079 C101.911594,162.204935 99.8572344,160.687111 98.4238024,158.266847 C96.0177064,154.197551 95.3277864,149.776519 95.2452424,145.143583" id="Fill-89" fill="#02363D"></path>
                        <path d="M153.225811,239.696442 C152.866683,239.696442 152.508171,239.703834 152.149043,239.69521 C150.914579,239.663794 150.173531,238.967098 150.118091,237.725858 C150.079283,236.856682 150.063267,235.979498 150.129795,235.114018 C150.161827,234.680354 150.284411,234.149362 150.567155,233.85861 C151.415387,232.986354 152.264851,232.05373 153.289875,231.432186 C155.394747,230.155834 158.209251,231.84737 158.219107,234.29597 C158.225267,235.616674 158.396515,236.96325 157.422003,238.100386 C156.588555,239.072434 155.676875,239.811634 154.301963,239.70137 C153.944683,239.672418 153.584939,239.696442 153.225811,239.696442" id="Fill-91" fill="#02363D"></path>
                        <path d="M155.657902,246.953106 C155.729974,247.833986 155.61971,248.814658 154.708646,249.661042 C153.129838,251.124658 150.569742,251.111106 149.17943,249.462074 C148.910854,249.142986 148.740838,248.670514 148.693406,248.24917 C148.614558,247.543234 148.65275,246.82005 148.675542,246.104874 C148.718662,244.748442 149.550878,243.85401 150.926406,243.697546 C151.635422,243.617466 152.34875,243.548474 153.06023,243.544778 C154.878046,243.534306 155.64435,244.311082 155.657286,246.119658 C155.659134,246.32417 155.657902,246.529914 155.657902,246.953106" id="Fill-93" fill="#02363D"></path>
                        <path d="M151.566677,254.478039 C154.322045,254.366543 154.442165,254.595695 154.448957,257.105279 C154.453253,258.828231 153.580381,259.984463 152.374253,261.002095 C152.198693,261.148703 151.917181,261.225087 151.681869,261.232479 C150.864437,261.261431 150.045773,261.236791 149.227725,261.247263 C148.397973,261.258967 147.755485,260.765551 147.564525,260.111359 C147.183837,258.801127 147.049549,257.410815 147.681565,256.108591 C148.226109,254.989319 149.195693,254.498367 150.419685,254.478039 C150.879837,254.471879 151.339373,254.478039 151.566677,254.478039" id="Fill-95" fill="#02363D"></path>
                        <path d="M148.98539,279.965655 C148.986622,280.271191 148.992166,280.577959 148.98539,280.883495 C148.961982,282.176479 148.074942,283.255095 146.82323,283.385687 C146.01627,283.468847 145.19083,283.428807 144.377094,283.399855 C143.62927,283.375215 142.98555,282.883647 142.913478,282.260871 C142.733606,280.718407 142.46195,279.074919 143.76787,277.807191 C144.037678,277.546623 144.440542,277.306383 144.79967,277.278663 C145.764326,277.206591 146.739454,277.210287 147.705342,277.270655 C148.719278,277.334719 148.935494,277.595287 148.981078,278.587663 C149.002022,279.045967 148.984774,279.505503 148.98539,279.965655" id="Fill-97" fill="#02363D"></path>
                        <path d="M151.709281,268.250198 C151.645217,268.800286 151.685257,269.391646 151.494913,269.893686 C150.778505,271.791582 148.772193,272.67739 146.897089,271.93819 C146.257681,271.685014 145.797529,271.196526 145.803073,270.422214 C145.806769,269.861038 145.796297,269.299862 145.798145,268.737454 C145.804305,266.83463 146.855201,265.771414 148.790673,265.703038 C148.892929,265.699342 148.995185,265.703038 149.096825,265.701806 C151.642753,265.675934 151.657537,265.692566 151.709281,268.250198" id="Fill-99" fill="#02363D"></path>
                        <path d="M106.994518,144.339765 C106.89103,146.514245 107.582798,148.877221 109.29343,150.869365 C110.376974,152.129701 111.687822,153.226181 113.406462,153.307493 C117.268166,153.487365 120.678958,152.391501 123.16575,149.234501 C125.693814,146.023293 126.32275,142.462197 124.915806,138.604189 C124.466126,137.375269 123.694894,136.294189 122.446878,135.810629 C119.30035,134.592181 116.067582,134.013757 112.736254,135.048021 C111.50487,135.429941 110.395454,136.037317 109.509646,137.024765 C107.75035,138.987957 106.980966,141.298573 106.994518,144.339765 M152.08695,153.346917 C154.014414,153.346917 155.906766,152.848573 157.79419,151.853733 C161.895518,149.692189 164.269582,144.600333 163.05791,139.696973 C162.651966,138.054101 161.828374,136.437101 160.117126,135.787837 C157.180654,134.675341 154.161638,134.087061 150.988622,134.901413 C148.40635,135.563613 146.62919,137.104229 145.614022,139.502317 C145.182822,140.523645 144.865582,141.637989 144.747926,142.737549 C144.431918,145.738085 144.994326,148.557517 147.04499,150.894621 C148.362614,152.397661 149.935878,153.498453 152.08695,153.346917 M123.229814,161.487357 C117.327918,161.760861 111.467294,161.531709 105.762518,159.804445 C104.59643,159.451477 103.415558,159.043069 102.365278,158.443701 C100.767374,157.531405 99.6715104,156.116453 99.0185504,154.371941 C97.2820464,149.743933 97.0202464,144.983485 98.0434224,140.203941 C98.8583904,136.393365 101.26695,133.787685 104.940774,132.396141 C109.517654,130.663333 114.19987,129.507101 119.136494,129.458437 C121.472982,129.435645 123.805158,129.109781 126.143494,129.022309 C128.996806,128.915125 131.853198,128.898493 134.708974,128.872005 C137.081806,128.849829 139.454022,128.836893 141.825622,128.887405 C142.572214,128.903421 143.314494,129.135653 144.058006,129.273021 C145.006646,129.447965 145.94851,129.716541 146.904542,129.786149 C148.584374,129.907501 150.27283,129.863149 151.95143,129.971565 C153.532086,130.073205 155.106582,130.277717 156.680462,130.448965 C157.334038,130.520421 157.983302,130.620829 158.633182,130.714461 C162.18319,131.233133 165.348814,132.487309 167.670518,135.387437 C169.576422,137.766429 169.528374,140.522413 169.095326,143.289485 C168.316702,148.255677 165.381462,151.846957 161.40703,154.650989 C157.69871,157.268989 153.41751,158.486821 149.023582,159.332589 C142.581454,160.571365 136.03707,160.947125 129.515478,161.460869 C127.432782,161.625957 125.326678,161.487357 123.229814,161.487357" id="Fill-101" fill="#ACCFCB"></path>
                        <path d="M146.976183,143.972198 C147.215807,145.00831 147.332231,146.090006 147.717231,147.067598 C148.430559,148.882334 150.338927,149.904894 152.278711,149.709006 C155.675951,149.365894 158.465199,148.075374 160.034151,144.825358 C160.639063,143.574262 160.640911,142.250478 160.566375,140.919918 C160.491839,139.60599 160.231271,139.154462 158.916111,138.880342 C157.127247,138.507046 155.293415,138.348118 153.481143,138.093094 C150.733783,137.706246 146.698983,140.199814 146.976183,143.972198 M152.088367,153.346486 C149.936679,153.498638 148.362799,152.397846 147.043943,150.89419 C144.994511,148.557086 144.432103,145.737038 144.748727,142.737734 C144.864535,141.638174 145.183623,140.523214 145.614207,139.502502 C146.629375,137.104414 148.405303,135.563798 150.989423,134.900982 C154.161823,134.087246 157.179607,134.674294 160.117311,135.788022 C161.827327,136.437286 162.650919,138.054286 163.056863,139.697158 C164.269767,144.601134 161.896319,149.692374 157.794375,151.853918 C155.906951,152.847526 154.015215,153.347102 152.088367,153.346486" id="Fill-103" fill="#02363D"></path>
                        <path d="M109.356878,143.977002 C109.508414,144.87513 109.540446,145.815146 109.83551,146.662146 C110.594422,148.836626 112.45351,149.928178 114.743182,149.679314 C118.08067,149.315874 120.869302,148.043218 122.305814,144.797514 C122.68527,143.93881 122.81155,142.918098 122.841118,141.966378 C122.916886,139.422914 122.16167,138.657842 119.559686,138.41637 C118.338774,138.30241 117.117246,138.208162 115.895102,138.097898 C112.138118,137.756634 109.471454,140.19045 109.356878,143.977002 M106.994518,144.339826 C106.980966,141.298018 107.75035,138.987402 109.509646,137.02421 C110.395454,136.037378 111.50487,135.430002 112.736254,135.047466 C116.067582,134.013818 119.30035,134.592242 122.446878,135.81069 C123.694894,136.29425 124.466126,137.37533 124.91519,138.60425 C126.32275,142.462258 125.693814,146.023354 123.16575,149.234562 C120.678958,152.391562 117.26755,153.48681 113.406462,153.306938 C111.687822,153.226242 110.376974,152.129146 109.29343,150.86881 C107.582798,148.877282 106.89103,146.514306 106.994518,144.339826" id="Fill-105" fill="#02363D"></path>
                        <path d="M157.298988,141.167118 C156.5179,140.825854 155.885884,140.631198 155.345036,140.291166 C154.748748,139.916022 154.256564,139.941894 153.63502,140.233878 C151.998924,141.000182 151.341652,142.490902 150.731196,144.010574 C150.17618,145.392262 150.880268,146.485046 151.713716,147.48543 C152.196044,148.065702 152.888428,148.084182 153.54878,147.834086 C154.910756,147.321574 156.15138,146.562662 156.950948,145.341134 C157.841068,143.979158 158.421956,142.500142 157.298988,141.167118 M146.97606,143.972382 C146.698244,140.199998 150.733044,137.705814 153.48102,138.093278 C155.293292,138.347686 157.12774,138.50723 158.915372,138.880526 C160.231148,139.154646 160.492948,139.606174 160.566252,140.920102 C160.640172,142.250662 160.638324,143.574446 160.034028,144.824926 C158.466308,148.075558 155.675828,149.366078 152.27982,149.70919 C150.338804,149.905078 148.431052,148.881902 147.717108,147.067782 C147.332108,146.09019 147.215068,145.007878 146.97606,143.972382" id="Fill-107" fill="#30AABC"></path>
                        <path d="M112.882616,144.40771 C112.825328,145.530062 113.337224,146.811342 113.891008,147.394694 C114.452184,147.987286 115.114384,148.11603 115.84496,147.822198 C117.924576,146.985054 119.560672,145.724102 120.065176,143.374062 C120.24012,142.559094 119.871136,141.197118 119.298872,140.935318 C118.618808,140.621774 117.935048,140.291598 117.219872,140.08339 C116.87368,139.982982 116.416608,140.057518 116.0698,140.197966 C114.040696,141.023406 113.455496,142.891734 112.882616,144.40771 M109.356632,143.977126 C109.470592,140.189958 112.137256,137.756758 115.896088,138.098022 C117.116384,138.208286 118.338528,138.301918 119.560056,138.415878 C122.161424,138.657966 122.916024,139.423038 122.840256,141.966502 C122.811304,142.918222 122.684408,143.938934 122.304952,144.797638 C120.869672,148.042726 118.080424,149.315998 114.743552,149.679438 C112.454496,149.928302 110.594176,148.836134 109.836496,146.66227 C109.5402,145.81527 109.508168,144.875254 109.356632,143.977126" id="Fill-109" fill="#30AABC"></path>
                        <path d="M157.298988,141.167118 C158.421956,142.500142 157.841068,143.979158 156.950948,145.341134 C156.15138,146.562662 154.910756,147.321574 153.54878,147.834086 C152.888428,148.084182 152.196044,148.065702 151.713716,147.48543 C150.880268,146.485046 150.17618,145.392262 150.731196,144.010574 C151.341652,142.490902 151.998924,141.000182 153.63502,140.233878 C154.256564,139.941894 154.748748,139.916022 155.345036,140.291166 C155.885884,140.631198 156.5179,140.825854 157.298988,141.167118" id="Fill-111" fill="#02363D"></path>
                        <path d="M112.882616,144.40771 C113.455496,142.891734 114.040696,141.023406 116.0698,140.197966 C116.416608,140.057518 116.87368,139.982982 117.219872,140.08339 C117.935048,140.291598 118.618808,140.621774 119.298872,140.935318 C119.871136,141.197118 120.24012,142.559094 120.065176,143.374062 C119.560672,145.724102 117.924576,146.985054 115.84496,147.822198 C115.114384,148.11603 114.452184,147.987286 113.891008,147.394694 C113.337224,146.811342 112.825328,145.530062 112.882616,144.40771" id="Fill-113" fill="#02363D"></path>
                        <path d="M167.724665,185.496881 C167.641505,184.591361 167.695713,183.668593 167.774561,182.727345 C143.741321,182.344193 119.714857,181.412185 95.6951688,180.342193 C95.7315128,182.477249 95.7869528,184.455225 95.7721688,186.423961 C95.7524568,189.226145 95.5590328,192.032025 95.6569768,194.826817 C95.6754568,195.346105 95.6643688,195.806873 95.5812088,196.225753 C95.5541048,196.676049 95.4968168,197.123881 95.4598568,197.573561 C96.5594168,197.702921 97.6583608,197.831049 98.7573048,197.956097 C98.9340968,197.880945 99.1219768,197.831665 99.2919928,197.821193 C100.156857,197.764521 101.028497,197.816881 101.897057,197.850145 C103.884889,197.922217 105.873337,198.041721 107.860553,198.082993 C110.619617,198.139665 113.377449,198.126729 116.136513,198.169233 C120.021625,198.228369 123.904273,198.322617 127.790001,198.375593 C128.749729,198.389761 129.709457,198.264713 130.669801,198.276417 C132.033009,198.294281 133.393753,198.392225 134.756345,198.434113 C139.203249,198.574561 143.650769,198.752585 148.100137,198.826505 C151.004577,198.873937 153.910249,198.727945 156.815305,198.746425 C158.585689,198.756897 160.355457,198.947857 162.125225,198.997753 C162.782497,199.015617 163.450241,198.908433 164.100121,198.779073 C164.312641,198.736569 164.510993,198.719937 164.703185,198.715009 C165.668457,198.698377 166.633729,198.663881 167.599617,198.634929 C167.387713,197.370281 167.454241,196.087769 167.570665,194.813265 C167.574977,194.769529 167.589761,194.735033 167.602081,194.698073 C167.427137,193.965649 167.424057,193.209201 167.514609,192.344953 C167.753617,190.084849 167.939033,187.813657 167.724665,185.496881" id="Fill-115" fill="#02363D"></path>
                    </g>
                </g>
            </g>
        </g>
    </g>
</svg>